<svg width="1452" height="1053" viewBox="0 0 1452 1053" fill="none" xmlns="http://www.w3.org/2000/svg">
<path d="M1130.41 531.212L1126.96 543.006L1122.63 575.125L1120.52 577.547L1116.63 580.495L1101.29 587.34L1094.84 589.446L1089.39 593.448L1080.39 607.559L1075.61 621.248L1077.17 624.723L1080.61 629.462L1091.06 639.15L1100.73 646.627L1110.74 652.419L1120.07 659.369L1122.41 664.739L1117.52 678.008L1098.51 680.43L1093.84 683.589L1085.73 687.064L1082.39 688.222L1070.94 691.066L1049.94 692.961L1044.49 686.853L1041.27 683.905L1033.49 678.745L1029.48 676.849L1024.04 675.059L981.467 665.371L958.681 657.368L949.344 652.629L884.876 612.403L880.986 605.558L878.763 602.82L873.427 599.239L866.758 593.553L864.313 593.026L862.312 593.132L850.753 603.873L821.186 584.707L821.075 579.547L822.076 571.649L821.742 567.437L820.853 565.331L819.519 563.436L817.629 561.961L809.738 557.433L803.18 560.487L785.618 583.549L728.375 538.162L706.478 526.263L699.253 523.314L697.141 522.683L686.915 514.89L656.571 483.404L652.681 475.295L621.225 455.708L554.868 424.433L500.737 421.905L494.401 420.747L479.618 415.061L478.173 399.054L476.617 395.368L473.505 392.631L447.384 378.098L439.493 375.992L416.484 373.57L381.472 347.56L358.019 326.183L329.008 318.39L326.007 317.021L322.339 314.494L315.67 308.492L303.777 294.275L297.663 288.484L293.217 285.008L251.424 265.843L249.201 265.211L238.197 268.054L219.969 254.681L215.856 253.206L211.966 253.101L208.742 252.469L203.518 248.994L178.065 217.929L176.064 216.244L172.285 207.504L170.395 192.55L174.285 190.55L174.952 188.759L174.952 184.863L169.95 169.383L168.95 148.954L170.617 129.788L174.174 120.206L189.291 115.678L200.851 108.833L209.187 99.3553L214.633 87.561L227.86 77.4517L231.417 72.397L229.528 67.2372L237.975 56.1801L245.867 52.2837L255.759 52.9155L270.431 55.3376L276.545 57.2331L280.768 59.7604L285.437 61.9719L292.773 62.6037L299.886 60.7081L306.889 57.2331L329.342 42.1745L337.9 34.6978L340.234 29.7484L339.79 24.5885L341.012 20.0603L347.904 16.48L359.575 17.849L369.356 24.5885L380.916 29.8538L397.7 26.5892L410.482 22.0612L428.266 5.10703L437.825 1.00009L460.834 20.6921L489.622 36.9092L517.965 68.1848L536.305 81.7692L548.865 85.8761L559.314 87.2451L567.539 91.0361L573.541 102.409L574.097 111.992L568.206 127.05L567.428 135.054L575.319 149.796L606.664 173.069L632.451 200.87L646.79 211.821L662.684 221.404L694.807 236.357L698.031 235.094L706.478 230.671L711.925 226.248L728.931 205.714L733.821 178.229L741.713 166.224L759.942 164.855L771.724 173.28L774.058 186.653L767.389 213.085L748.604 248.889L746.159 261.104L750.383 271.635L758.83 281.428L765.944 292.696L766.389 307.228L762.61 312.914L750.716 321.76L747.826 326.393L764.166 351.456L769.723 363.566L773.28 376.519L778.171 387.786L787.841 394.737L806.737 404.109L827.633 427.171L842.861 436.753L852.976 441.071L865.425 453.813L873.316 458.973L880.763 460.026L896.769 458.025L905.328 459.921L908.774 463.185L912.442 472.347L915.443 475.085L934.338 477.822L940.452 468.556L943.564 453.076L953.234 436.753L956.124 426.855L963.016 414.007L972.13 402.319L982.134 396.106L998.584 398.422L1012.03 409.163L1022.04 423.485L1028.48 436.753L1028.26 453.181L1033.93 469.609L1045.71 477.612L1063.61 468.134L1091.84 479.191L1111.18 500.884L1130.41 531.212V531.212Z" stroke="#E74C3C" stroke-width="2" stroke-linecap="round" stroke-linejoin="round"/>
<path d="M170.394 192.55L172.284 207.503L176.063 216.244L178.064 217.929L203.517 248.994L208.741 252.469L211.965 253.101L215.855 253.206L219.968 254.68L238.197 268.054L249.201 265.211L251.424 265.843L293.216 285.008L297.663 288.483L303.776 294.275L315.669 308.491L322.338 314.494L326.006 317.021L329.007 318.39L358.018 326.183L381.471 347.56L416.483 373.57L439.492 375.992L447.383 378.098L473.504 392.63L476.616 395.368L478.172 399.054L479.617 415.06L475.838 421.8L477.394 426.117L477.061 430.751L476.061 435.489L464.056 458.762L460.166 462.658L458.054 467.608L457.832 469.503L458.276 471.399L460.944 472.978L465.279 474.768L466.835 476.032L467.835 477.612L468.169 481.403L466.613 486.668L464.501 490.88L464.723 495.935L463.389 499.936L454.053 513.837L451.496 519.313L444.382 528.053L443.271 531.844L442.826 537.109L443.827 546.376L446.05 555.116L448.162 560.171L448.495 563.225L447.828 580.495L450.273 590.604L450.385 593.132L448.384 605.768L423.597 652.103L421.707 670.11L421.263 670.952L417.261 669.057L389.251 668.635L361.352 665.371L337.677 656.841L322.56 640.414L333.009 628.514L314.335 617.036L285.992 606.505L267.652 597.133L245.088 558.381L227.637 546.271L206.074 558.907L200.516 558.907L204.184 545.955L188.845 490.564L151.165 453.181L142.495 441.913L134.492 434.752L121.932 430.856L79.917 430.224L60.9101 432.225L45.1266 436.543L34.9007 444.019L34.5672 435.068L36.3456 428.961L38.9021 423.906L49.4615 411.691L54.1299 396.527L54.5745 380.52L51.7957 362.092L55.4637 314.072L54.4633 311.124L49.0169 302.7L47.9054 298.487L49.5726 294.907L56.1306 286.693L57.6867 282.376L55.1302 240.253L51.7957 233.303L44.5708 226.88L36.2345 224.352L18.6726 224.036L11.8923 221.72L1.11064 207.188L8.33547 196.762L40.0136 180.335L53.4629 166.224L59.4651 149.691L59.0205 132.421L53.2406 115.467L81.4731 118.205L85.6968 123.259L79.2501 130.631L76.1378 140.951L82.9181 151.27L93.6997 152.745L106.927 151.902L120.932 155.061L132.269 168.751L143.273 187.811L156.5 199.5L170.394 192.55V192.55Z" stroke="#E74C3C" stroke-width="2" stroke-linecap="round" stroke-linejoin="round"/>
<path d="M698.475 738.664L702.588 738.769L728.931 746.877L729.598 754.565L731.821 756.46L735.933 758.988L737.601 761.515L737.934 770.782L734.933 784.156L728.486 783.945L718.038 786.262L709.479 790.579L702.143 792.896L695.141 789.105L692.473 781.628L694.029 772.467L697.808 764.464L701.81 760.146L701.81 755.407L697.808 748.562L698.475 738.664V738.664Z" stroke="#E74C3C" stroke-width="2" stroke-linecap="round" stroke-linejoin="round"/>
<path d="M479.618 415.061L494.401 420.747L500.737 421.905L554.868 424.433L621.225 455.708L652.681 475.295L656.571 483.404L686.915 514.89L697.141 522.683L699.253 523.314L706.478 526.263L728.375 538.162L785.618 583.549L803.18 560.487L809.738 557.433L817.629 561.961L819.519 563.436L820.853 565.331L821.742 567.437L822.076 571.649L821.075 579.547L821.186 584.707L850.753 603.873L862.312 593.132L864.313 593.026L866.758 593.553L873.427 599.239L878.763 602.82L880.986 605.558L884.876 612.403L949.344 652.629L958.681 657.368L981.467 665.371L1024.04 675.059L1029.48 676.849L1033.49 678.745L1041.27 683.905L1044.49 686.853L1049.94 692.961L1024.93 688.749L1019.26 690.118L1017.92 692.751L1016.7 696.226L1015.26 698.437L1011.92 701.702L1009.03 702.649L1006.48 702.439L1001.14 701.07L993.693 700.438L975.798 700.122L968.907 702.123L964.572 704.966L963.905 708.125L964.572 710.337L965.905 712.548L967.573 714.233L968.462 715.918L968.795 719.393L970.129 725.606L970.24 728.976L971.352 731.714L974.909 734.136L976.465 738.453L980.133 740.77L983.579 745.087L984.023 746.456L984.357 749.615L985.579 754.249L985.357 758.04L985.579 759.83L987.358 763.726L990.581 771.835L991.804 776.784L991.359 783.734L991.693 785.63L995.138 788.473L994.805 791.211L995.138 798.898L991.693 816.063L981.911 834.07L980.911 854.605L979.355 858.185L931.893 841.652L925.78 846.075L915.776 835.229L879.43 827.015L871.427 815.221L860.756 815.642L789.397 788.157L771.835 785.314L734.933 784.156L737.934 770.782L737.6 761.515L735.933 758.988L731.821 756.46L729.598 754.565L728.931 746.878L702.588 738.769L698.475 738.664L699.031 732.135L695.141 721.92L689.139 717.497L671.465 710.863L664.241 707.177L660.573 706.967L659.239 708.02L658.794 712.443L651.347 706.44L630.006 698.016L621.225 692.961L619.447 688.328L619.335 676.744L615.667 673.901L607.553 674.217L603.33 677.481L600.773 681.167L597.439 683.378L575.764 683.589L536.75 672.111L509.073 669.057L498.625 671.268L479.062 681.167L466.502 683.378L436.047 683.378L429.489 681.167L421.931 671.268L421.264 670.952L421.708 670.11L423.598 652.103L448.385 605.768L450.385 593.132L450.274 590.604L447.829 580.495L448.496 563.225L448.162 560.171L446.05 555.117L443.827 546.376L442.827 537.109L443.272 531.844L444.383 528.053L451.497 519.313L454.053 513.837L463.39 499.937L464.724 495.935L464.502 490.88L466.613 486.668L468.17 481.403L467.836 477.612L466.836 476.032L465.28 474.769L460.945 472.978L458.277 471.399L457.832 469.503L458.055 467.608L460.167 462.659L464.057 458.762L476.061 435.49L477.062 430.751L477.395 426.118L475.839 421.8L479.618 415.061V415.061Z" stroke="#E74C3C" stroke-width="2" stroke-linecap="round" stroke-linejoin="round"/>
<path d="M1117.52 678.008L1122.41 664.739L1120.07 659.369L1110.74 652.419L1100.73 646.627L1091.06 639.15L1080.61 629.462L1077.17 624.723L1075.61 621.248L1080.39 607.559L1089.39 593.448L1094.84 589.446L1101.29 587.34L1116.63 580.495L1120.52 577.547L1122.63 575.125L1126.96 543.007L1130.41 531.212L1140.97 547.956L1154.53 558.697L1184.1 572.703L1197.54 584.076L1203.1 592.395L1207.66 602.083L1210.66 611.982L1211.66 621.248L1215.22 633.569L1244.67 660.106L1256.45 674.112L1261.46 695.173L1268.13 701.386L1284.24 699.174L1288.02 699.701L1284.24 704.018L1277.35 712.864L1256.23 725.501L1251.01 729.502L1251.9 737.716L1260.35 742.349L1272.35 746.456L1284.35 752.88L1303.81 758.251L1347.27 759.935L1369.72 763.726L1384.5 769.729L1409.18 782.681L1422.51 786.156L1424.4 807.533L1439.63 841.021L1450.53 880.405L1449.19 889.672L1440.19 896.2L1429.74 901.045L1420.74 907.889L1414.07 915.682L1412.18 919.789L1405.84 918.841L1395.73 918.209L1388.72 918.946L1382.72 917.683L1376.61 917.262L1352.6 908.732L1349.38 906.731L1348.93 902.94L1350.16 897.675L1350.16 895.99L1348.6 893.357L1345.26 890.093L1342.49 888.408L1339.04 887.144L1330.04 886.618L1327.81 885.986L1327.04 883.037L1327.04 876.508L1326.59 874.613L1325.59 872.401L1321.14 865.557L1319.81 864.609L1316.7 865.557L1313.92 868.926L1312.25 872.507L1310.7 873.77L1308.7 873.56L1306.58 872.296L1304.03 868.4L1302.69 865.557L1301.03 861.029L1298.25 857.659L1293.91 853.762L1268.01 834.492L1264.57 831.227L1260.35 828.91L1255.68 827.647L1241.34 827.752L1237.78 828.279L1232.89 827.752L1222.89 821.013L1225.11 831.859L1227.56 835.018L1228.11 837.861L1227.89 842.389L1224.22 860.818L1219.55 874.402L1207.21 885.249L1193.32 882.195L1187.65 883.88L1184.43 887.46L1179.98 894.937L1179.65 896.832L1179.98 898.623L1179.54 906.415L1179.2 908.416L1177.2 912.207L1175.09 914.313L1174.09 912.944L1173.87 906.31L1172.54 903.782L1169.98 901.676L1164.42 899.465L1161.31 898.517L1153.86 898.096L1151.86 897.675L1149.64 895.885L1147.53 892.515L1145.53 885.459L1145.86 881.879L1147.19 879.352L1149.08 878.299L1154.86 876.087L1156.42 874.613L1159.2 871.348L1160.64 870.19L1164.87 867.768L1165.87 866.188L1165.31 864.714L1163.09 863.556L1155.53 864.398L1151.19 863.345L1126.96 850.709L1124.96 850.182L1120.96 850.077L1119.52 851.235L1119.29 852.709L1120.41 856.395L1119.96 857.764L1118.52 858.08L1115.74 857.132L1105.96 851.446L1102.4 849.866L1099.73 848.076L1098.18 846.18L1097.51 838.283L1096.62 833.86L1095.62 831.964L1093.84 830.385L1089.62 829.753L1087.17 830.49L1085.5 832.07L1083.39 834.913L1079.17 828.173L1071.83 797.951L1073.06 792.685L1072.94 788.157L1072.5 786.051L1071.05 782.05L1066.39 774.257L1065.05 770.045L1065.05 766.043L1063.83 762.252L1062.38 760.567L1058.38 757.619L1057.38 755.829L1057.38 754.249L1058.72 752.143L1066.16 752.669L1088.06 756.039L1090.39 756.144L1147.75 753.828L1159.53 755.197L1166.76 753.091L1192.32 742.244L1168.76 734.452L1162.87 730.977L1161.98 728.028L1159.75 724.237L1159.2 721.394L1160.98 716.866L1161.2 714.654L1160.64 710.653L1159.2 708.441L1156.86 706.651L1155.08 705.914L1145.64 702.86L1133.52 690.855L1131.74 686.748L1128.96 683.905L1117.52 678.008V678.008Z" stroke="#E74C3C" stroke-width="2" stroke-linecap="round" stroke-linejoin="round"/>
<path d="M1049.94 692.961L1070.94 691.066L1082.39 688.223L1085.73 687.064L1093.84 683.589L1098.51 680.43L1117.52 678.008L1128.96 683.905L1131.74 686.748L1133.52 690.855L1145.64 702.86L1155.09 705.914L1156.86 706.651L1159.2 708.441L1160.64 710.653L1161.2 714.654L1160.98 716.866L1159.2 721.394L1159.75 724.237L1161.98 728.028L1162.87 730.976L1168.76 734.452L1192.32 742.244L1166.76 753.091L1159.53 755.197L1147.75 753.828L1090.4 756.144L1088.06 756.039L1066.16 752.669L1058.72 752.143L1057.38 754.249L1057.38 755.828L1058.38 757.619L1062.38 760.567L1063.83 762.252L1065.05 766.043L1065.05 770.045L1066.39 774.257L1071.05 782.05L1072.5 786.051L1072.94 788.157L1073.06 792.685L1071.83 797.951L1079.17 828.173L1083.39 834.913L1085.5 832.07L1087.17 830.49L1089.62 829.753L1093.84 830.385L1095.62 831.964L1096.62 833.86L1097.51 838.283L1098.18 846.18L1099.73 848.076L1102.4 849.866L1105.96 851.446L1115.74 857.132L1118.52 858.08L1119.96 857.764L1120.41 856.395L1119.29 852.709L1119.52 851.235L1120.96 850.077L1124.96 850.182L1126.96 850.709L1151.19 863.345L1155.53 864.398L1163.09 863.556L1165.31 864.714L1165.87 866.188L1164.87 867.768L1160.64 870.19L1159.2 871.348L1156.42 874.613L1154.86 876.087L1149.08 878.299L1147.19 879.352L1145.86 881.879L1145.53 885.459L1147.53 892.515L1149.64 895.885L1151.86 897.675L1153.86 898.096L1161.31 898.517L1164.42 899.465L1169.98 901.676L1172.54 903.782L1173.87 906.31L1174.09 912.944L1175.09 914.313L1177.2 912.207L1179.2 908.416L1179.54 906.415L1179.98 898.622L1179.65 896.832L1179.98 894.937L1184.43 887.46L1187.65 883.88L1193.32 882.195L1207.22 885.249L1219.55 874.402L1224.22 860.818L1227.89 842.389L1228.11 837.861L1227.56 835.018L1225.11 831.859L1222.89 821.012L1232.89 827.752L1237.78 828.279L1241.34 827.752L1255.68 827.647L1260.35 828.91L1264.57 831.227L1268.01 834.492L1293.91 853.762L1298.25 857.659L1301.03 861.028L1302.69 865.557L1304.03 868.4L1306.58 872.296L1308.7 873.56L1310.7 873.77L1312.25 872.507L1313.92 868.926L1316.7 865.557L1319.81 864.609L1321.15 865.557L1325.59 872.401L1326.59 874.613L1327.04 876.508L1327.04 883.037L1327.81 885.986L1330.04 886.618L1339.04 887.144L1342.49 888.408L1345.27 890.093L1348.6 893.357L1350.16 895.99L1350.16 897.675L1348.93 902.94L1349.38 906.731L1352.6 908.732L1376.61 917.262L1382.72 917.683L1388.73 918.946L1395.73 918.209L1405.84 918.841L1412.18 919.789L1410.4 923.369L1410.4 931.899L1419.4 957.699L1419.07 962.753L1416.29 972.652L1415.96 976.759L1417.85 981.392L1424.18 989.08L1425.52 992.134L1421.07 1048.05L1419.63 1048.05L1415.85 1047.21L1416.29 1050.37L1415.18 1051.42L1412.96 1051.42L1410.29 1051.95L1400.51 1047.63L1390.5 1041.42L1382.83 1033.83L1375.94 1018.35L1367.16 1013.41L1357.16 1009.09L1349.71 1004.35L1343.71 1008.56L1342.82 1004.35L1344.04 1002.03L1349.71 999.505L1301.47 978.549L1275.24 975.39L1252.79 990.027L1241.01 975.074L1224.55 964.544L1185.99 951.275L1174.43 949.59L1150.64 949.169L1138.3 946.536L1118.07 933.794L1107.18 929.372L1096.06 932.215L1066.61 895.885L1046.27 877.667L1020.15 869.769L1008.7 868.295L979.355 858.185L980.911 854.605L981.911 834.07L991.693 816.063L995.138 798.898L994.805 791.211L995.138 788.473L991.693 785.63L991.359 783.734L991.804 776.784L990.581 771.835L987.358 763.726L985.579 759.83L985.357 758.04L985.579 754.249L984.357 749.615L984.023 746.456L983.579 745.087L980.133 740.77L976.465 738.453L974.909 734.136L971.352 731.714L970.24 728.976L970.129 725.606L968.795 719.393L968.462 715.918L967.573 714.233L965.905 712.548L964.572 710.337L963.905 708.125L964.572 704.966L968.907 702.123L975.798 700.122L993.693 700.438L1001.14 701.07L1006.48 702.439L1009.03 702.649L1011.92 701.702L1015.26 698.437L1016.7 696.226L1017.92 692.751L1019.26 690.118L1024.93 688.749L1049.94 692.961V692.961Z" stroke="#E74C3C" stroke-width="2" stroke-linecap="round" stroke-linejoin="round"/>
</svg>
