<svg id="Calque_1" data-name="Calque 1" xmlns="http://www.w3.org/2000/svg" viewBox="0 0 110.25 408.38">
  <defs>
    <style>
      .cls-1 {
        fill: none;
        stroke: #000;
        stroke-miterlimit: 10;
      }
    </style>
  </defs>
  <title>revolution</title>
  <path class="cls-1" d="M69.83,432a17,17,0,0,1-2.38-8.89H79.22v3.2q0,12.07,11.22,12.08h20.81v11H68.08v-11h8.26A18.05,18.05,0,0,1,69.83,432Z" transform="translate(-52.15 -41.51)"/>
  <path class="cls-1" d="M113.58,376.84v31.64q5.78-.24,8.5-3.12a10,10,0,0,0,2.73-7.17,10.38,10.38,0,0,0-1.88-6.35,8.27,8.27,0,0,0-5.06-3.24V377a18.69,18.69,0,0,1,8.1,3.67,19.14,19.14,0,0,1,5.61,7.2,24.69,24.69,0,0,1-.66,21,18.91,18.91,0,0,1-7.67,7.63,24.17,24.17,0,0,1-11.77,2.73,24.41,24.41,0,0,1-11.81-2.73A18.61,18.61,0,0,1,92,408.87a23.26,23.26,0,0,1-2.65-11.23A22.71,22.71,0,0,1,92,386.46a18.74,18.74,0,0,1,7.29-7.4,21.14,21.14,0,0,1,10.55-2.61A20.76,20.76,0,0,1,113.58,376.84Zm-12.85,13.44A10.55,10.55,0,0,0,98,397.64a10.76,10.76,0,0,0,2.73,7.48q2.73,3,8,3.36v-21Q103.46,387.29,100.73,390.28Z" transform="translate(-52.15 -41.51)"/>
  <path class="cls-1" d="M150.91,348.32l-32.18-10.91V325.72l43.17,16v13.4l-43.17,16V359.31Z" transform="translate(-52.15 -41.51)"/>
  <path class="cls-1" d="M78.75,292.25a19.48,19.48,0,0,1,7.68-7.91,23.31,23.31,0,0,1,11.8-2.88A23.12,23.12,0,0,1,110,284.34a19.87,19.87,0,0,1,7.68,7.91,25.33,25.33,0,0,1,0,22.68,19.81,19.81,0,0,1-7.68,7.91,23.12,23.12,0,0,1-11.77,2.88,23.31,23.31,0,0,1-11.8-2.88,19.42,19.42,0,0,1-7.68-7.91,25.59,25.59,0,0,1,0-22.68Zm10.09,19.13q3.24,3.21,9.39,3.2t9.39-3.2a11,11,0,0,0,0-15.58q-3.23-3.19-9.39-3.2t-9.39,3.2a11,11,0,0,0,0,15.58Z" transform="translate(-52.15 -41.51)"/>
  <path class="cls-1" d="M53.58,260.34h79.8v11H53.58Z" transform="translate(-52.15 -41.51)"/>
  <path class="cls-1" d="M111.71,207.51h43.17v11h-8.72a13.71,13.71,0,0,1,6.81,5.65,16.76,16.76,0,0,1,2.46,9.08q0,7.47-4.91,11.92t-13.71,4.44h-25.1V238.68h23.85q5.15,0,8-2.65a9.32,9.32,0,0,0,2.84-7.17,9.77,9.77,0,0,0-3-7.55c-2-1.88-4.93-2.81-8.73-2.81H111.71Z" transform="translate(-52.15 -41.51)"/>
  <path class="cls-1" d="M137.66,173.69h9.43v5.77q0,7.24-3.51,11.11t-11.68,3.85H113.19v6h-9.27v-6H93.25v-11h10.67v-9.67h9.27v9.67h18.86c2.08,0,3.54-.42,4.37-1.25s1.24-2.23,1.24-4.21Z" transform="translate(-52.15 -41.51)"/>
  <path class="cls-1" d="M69.28,160.53a8.05,8.05,0,0,1,0-9.82,5.54,5.54,0,0,1,4.33-1.87,5.46,5.46,0,0,1,4.25,1.87,8.05,8.05,0,0,1,0,9.82,5.49,5.49,0,0,1-4.25,1.87A5.57,5.57,0,0,1,69.28,160.53ZM86,150.16h43.17v11H86Z" transform="translate(-52.15 -41.51)"/>
  <path class="cls-1" d="M77.19,104.23a19.42,19.42,0,0,1,7.68-7.91,23.34,23.34,0,0,1,11.8-2.88,23.12,23.12,0,0,1,11.77,2.88,19.74,19.74,0,0,1,7.68,7.91,25.23,25.23,0,0,1,0,22.67,19.74,19.74,0,0,1-7.68,7.91,23,23,0,0,1-11.77,2.89,23.24,23.24,0,0,1-11.8-2.89,19.42,19.42,0,0,1-7.68-7.91,25.57,25.57,0,0,1,0-22.67Zm10.1,19.13q3.22,3.19,9.38,3.19t9.39-3.19a11,11,0,0,0,0-15.59q-3.23-3.19-9.39-3.19t-9.38,3.19a11,11,0,0,0,0,15.59Z" transform="translate(-52.15 -41.51)"/>
  <path class="cls-1" d="M57.56,46.45Q62.47,42,71.35,42H96.44V52.92H72.6q-5.14,0-8,2.64a9.42,9.42,0,0,0-2.84,7.25,9.7,9.7,0,0,0,3,7.48q3,2.8,8.73,2.81H96.44v11H53.27v-11h8.65a13.77,13.77,0,0,1-6.82-5.65,16.84,16.84,0,0,1-2.45-9.08Q52.65,50.89,57.56,46.45Z" transform="translate(-52.15 -41.51)"/>
</svg>
