<svg width="40" height="106" viewBox="0 0 40 106" fill="none" xmlns="http://www.w3.org/2000/svg">
<path d="M35.5 84.9545C35.5 94.3111 28.3471 101.5 20 101.5C11.6529 101.5 4.5 94.3111 4.5 84.9545C4.5 79.5568 6.67908 58.6377 10.2844 38.9283C12.0817 29.1027 14.1902 19.828 16.4768 13.0847C17.6307 9.6818 18.7475 7.17569 19.756 5.60486C19.8426 5.46997 19.924 5.34862 20 5.23955C20.076 5.34862 20.1574 5.46997 20.244 5.60486C21.2525 7.17569 22.3693 9.6818 23.5232 13.0847C25.8098 19.828 27.9183 29.1027 29.7156 38.9283C33.3209 58.6377 35.5 79.5568 35.5 84.9545ZM20.7796 4.3305C20.7796 4.33061 20.7773 4.33227 20.7726 4.33519C20.7773 4.33186 20.7796 4.3304 20.7796 4.3305ZM19.2274 4.33521C19.2227 4.33227 19.2204 4.33061 19.2204 4.3305C19.2204 4.3304 19.2227 4.33187 19.2274 4.33521Z" fill="#100BFF" stroke="black" stroke-width="9"/>
</svg>
