<svg width="33" height="116" viewBox="0 0 33 116" fill="none" xmlns="http://www.w3.org/2000/svg">
<path d="M16.4999 3.89706C16.6743 4.2204 16.8657 4.61498 17.0708 5.09012C18.0351 7.32503 19.0232 10.6791 19.9983 14.9351C21.9381 23.402 23.7012 34.866 25.1907 46.7064C28.1745 70.425 30 95.1423 30 99.4989C30 106.956 23.9557 113 16.5 113C9.04434 113 3 106.956 3 99.4989C3 95.1422 4.82549 70.425 7.80925 46.7064C9.29876 34.866 11.0618 23.402 13.0016 14.9351C13.9767 10.6791 14.9648 7.32503 15.9291 5.09011C16.1341 4.61497 16.3256 4.2204 16.4999 3.89706ZM17.2459 2.79836C17.2616 2.78368 17.2695 2.77788 17.2695 2.77866C17.2695 2.77944 17.2617 2.78678 17.2459 2.79836ZM15.754 2.79834C15.7382 2.78677 15.7304 2.77943 15.7304 2.77866C15.7304 2.77788 15.7383 2.78367 15.754 2.79834Z" fill="black" stroke="black" stroke-width="6"/>
</svg>
