<svg width="33" height="84" viewBox="0 0 33 84" fill="none" xmlns="http://www.w3.org/2000/svg">
<g style="mix-blend-mode:multiply">
<path d="M16.5 3.15709C16.6783 3.32349 16.9569 3.63111 17.3277 4.18843C18.1975 5.49564 19.1358 7.5388 20.0923 10.26C21.991 15.6618 23.7357 23.07 25.2199 30.8913C28.1961 46.5757 30 63.2291 30 67.4989C30 74.9555 23.9557 81 16.5 81C9.04434 81 3 74.9556 3 67.4989C3 63.2291 4.80394 46.5757 7.78014 30.8913C9.26426 23.07 11.009 15.6618 12.9077 10.26C13.8642 7.5388 14.8025 5.49564 15.6723 4.18843C16.0431 3.63111 16.3217 3.32349 16.5 3.15709Z" stroke="black" stroke-width="6"/>
</g>
</svg>
