<svg width="368" height="361" viewBox="0 0 368 361" fill="none" xmlns="http://www.w3.org/2000/svg">
<path d="M280.322 67.2916L283.182 69.9211L277.659 75.9279C277.314 76.3034 277.155 76.6603 277.184 76.9988C277.226 77.3368 277.398 77.6445 277.7 77.922C277.847 78.0574 278.015 78.1777 278.204 78.283C278.392 78.3884 278.619 78.4885 278.885 78.5835L278.399 79.6443C278.233 79.5734 278.074 79.5022 277.923 79.4307C277.778 79.366 277.637 79.2905 277.499 79.2043C277.354 79.1255 277.209 79.0325 277.063 78.9254C276.917 78.8324 276.767 78.7149 276.613 78.5727C276.009 78.0177 275.708 77.4217 275.71 76.7847C275.719 76.1544 276.024 75.5117 276.627 74.8566L281.287 69.7883L279.52 68.1639L280.322 67.2916Z" fill="#DBDBDB"/>
<path d="M284.495 83.4631C284.802 83.1917 285.135 83.0247 285.493 82.962C285.858 82.9067 286.258 82.96 286.695 83.1217C287.138 83.2909 287.627 83.5729 288.162 83.9675C288.704 84.3696 289.305 84.8923 289.967 85.5356C290.291 85.2228 290.48 84.8555 290.535 84.4338C290.596 84.0196 290.411 83.5689 289.981 83.0816C289.683 82.7443 289.328 82.4707 288.916 82.2609C288.511 82.0586 288.11 81.892 287.715 81.7611L288.101 80.6799C288.323 80.7504 288.562 80.8396 288.817 80.9476C289.08 81.049 289.342 81.1715 289.602 81.3152C289.869 81.4664 290.124 81.6346 290.368 81.8198C290.618 82.0125 290.849 82.2288 291.061 82.4687C291.736 83.2333 292.036 83.9888 291.961 84.7351C291.886 85.4814 291.485 86.1756 290.758 86.8176L287.452 89.7364L286.648 88.8256L287.277 88.1101L287.247 88.0764C286.764 87.9826 286.275 87.8282 285.778 87.6131C285.295 87.3988 284.885 87.1006 284.548 86.7183C284.316 86.4559 284.135 86.1754 284.005 85.8769C283.881 85.5858 283.814 85.2982 283.803 85.0142C283.8 84.7235 283.853 84.4434 283.962 84.1739C284.077 83.9118 284.255 83.6749 284.495 83.4631ZM285.527 84.4731C285.249 84.718 285.143 84.9983 285.209 85.3141C285.281 85.6374 285.449 85.949 285.714 86.2488C285.972 86.5412 286.287 86.7698 286.66 86.9346C287.038 87.107 287.47 87.233 287.954 87.3127L289.258 86.1611C288.737 85.661 288.28 85.2642 287.887 84.9706C287.502 84.6703 287.157 84.4611 286.853 84.343C286.562 84.2258 286.31 84.1817 286.096 84.2109C285.881 84.2401 285.692 84.3275 285.527 84.4731Z" fill="#DBDBDB"/>
<path d="M297.97 93.275L296.803 91.6382L297.719 90.9853L298.982 92.6274L300.744 91.6109L301.458 92.6125L299.809 93.7878L301.82 96.6094L300.843 97.3059L298.832 94.4843L296.193 96.3648C295.68 96.7305 295.37 97.1051 295.263 97.4886C295.161 97.8802 295.305 98.3488 295.694 98.8944C295.879 99.155 296.071 99.3807 296.268 99.5716C296.48 99.7648 296.699 99.9341 296.925 100.08L296.208 100.96C295.927 100.755 295.637 100.513 295.34 100.233C295.035 99.9598 294.76 99.652 294.516 99.31C294.203 98.8702 293.997 98.4521 293.899 98.0556C293.806 97.6673 293.803 97.3011 293.889 96.9571C293.981 96.6212 294.149 96.3052 294.392 96.009C294.644 95.707 294.957 95.4225 295.331 95.1555L297.97 93.275Z" fill="#DBDBDB"/>
<path d="M302.734 104.864C303.256 104.569 303.773 104.396 304.285 104.348C304.807 104.294 305.297 104.338 305.757 104.48C306.225 104.617 306.644 104.839 307.014 105.147C307.392 105.45 307.699 105.811 307.936 106.228C308.202 106.698 308.362 107.153 308.416 107.594C308.475 108.043 308.441 108.47 308.314 108.875C308.196 109.276 307.987 109.647 307.686 109.989C307.395 110.327 307.027 110.621 306.583 110.872C306.453 110.946 306.322 111.009 306.19 111.061C306.072 111.116 305.969 111.157 305.881 111.184L303.161 106.38C302.559 106.779 302.198 107.288 302.078 107.907C301.971 108.531 302.1 109.165 302.465 109.809C302.662 110.157 302.892 110.451 303.155 110.693C303.423 110.944 303.726 111.163 304.062 111.352L303.499 112.274C303.103 112.062 302.712 111.788 302.328 111.455C301.957 111.124 301.631 110.711 301.35 110.215C301.079 109.737 300.897 109.242 300.804 108.732C300.724 108.226 300.739 107.735 300.849 107.259C300.958 106.783 301.166 106.338 301.472 105.923C301.791 105.513 302.211 105.16 302.734 104.864ZM306.125 109.546C306.7 109.221 307.055 108.824 307.192 108.356C307.33 107.887 307.243 107.379 306.932 106.831C306.662 106.352 306.268 106.012 305.751 105.81C305.235 105.608 304.665 105.627 304.041 105.865L306.125 109.546Z" fill="#DBDBDB"/>
<path d="M315.864 114.766L317.417 118.327L309.937 121.588C309.469 121.792 309.18 122.055 309.069 122.376C308.971 122.702 309.004 123.053 309.168 123.429C309.248 123.612 309.353 123.79 309.483 123.963C309.613 124.135 309.78 124.319 309.985 124.513L309.111 125.287C308.988 125.155 308.872 125.025 308.762 124.899C308.656 124.781 308.557 124.655 308.466 124.52C308.365 124.39 308.27 124.246 308.18 124.089C308.084 123.945 307.995 123.777 307.911 123.584C307.583 122.833 307.549 122.166 307.808 121.584C308.071 121.011 308.61 120.547 309.426 120.191L315.737 117.44L314.778 115.24L315.864 114.766Z" fill="#DBDBDB"/>
<path d="M309.661 132.521C309.659 132.616 309.666 132.719 309.68 132.83C309.694 132.941 309.718 133.049 309.751 133.154C309.899 133.621 310.147 133.956 310.495 134.161C310.834 134.368 311.224 134.491 311.667 134.529L312.212 134.561L318.15 129.169L318.598 130.584L315.451 133.313C315.179 133.546 314.888 133.786 314.577 134.031C314.267 134.276 313.963 134.525 313.665 134.777L313.683 134.834C314.053 134.842 314.434 134.853 314.826 134.865C315.218 134.877 315.594 134.889 315.954 134.9L320.04 135.131L320.466 136.475L312.084 135.844C311.667 135.819 311.277 135.765 310.914 135.68C310.552 135.596 310.222 135.464 309.924 135.286C309.629 135.117 309.375 134.894 309.16 134.615C308.937 134.34 308.76 133.998 308.63 133.588C308.576 133.416 308.536 133.24 308.51 133.059C308.477 132.891 308.464 132.733 308.469 132.584L309.661 132.521Z" fill="#DBDBDB"/>
<path d="M324.861 158.158L325.332 162.904L318.033 163.629L317.886 162.151L323.991 161.545L323.667 158.276L324.861 158.158ZM326.635 161.901C326.603 161.582 326.671 161.309 326.84 161.081C327.008 160.854 327.251 160.724 327.57 160.692C327.888 160.661 328.152 160.74 328.362 160.93C328.582 161.119 328.708 161.373 328.739 161.692C328.771 162.01 328.697 162.284 328.519 162.512C328.351 162.74 328.107 162.87 327.789 162.902C327.471 162.933 327.206 162.854 326.997 162.664C326.787 162.473 326.666 162.219 326.635 161.901Z" fill="#DBDBDB"/>
<path d="M324.668 174.365L324.679 172.355L325.804 172.36L325.868 174.431L327.892 174.636L327.886 175.866L325.861 175.856L325.843 179.321L324.643 179.314L324.661 175.849L321.421 175.833C320.791 175.83 320.32 175.952 320.009 176.201C319.698 176.459 319.54 176.923 319.537 177.593C319.535 177.913 319.559 178.208 319.607 178.479C319.666 178.759 319.744 179.024 319.843 179.275L318.747 179.569C318.638 179.239 318.545 178.873 318.467 178.473C318.379 178.072 318.336 177.662 318.339 177.242C318.341 176.702 318.419 176.243 318.571 175.863C318.722 175.494 318.934 175.195 319.205 174.967C319.476 174.748 319.797 174.59 320.168 174.492C320.548 174.393 320.968 174.346 321.428 174.348L324.668 174.365Z" fill="#DBDBDB"/>
<path d="M323.694 188.998C323.9 189.503 324.177 189.911 324.526 190.22C324.873 190.54 325.298 190.743 325.802 190.828C325.766 190.693 325.755 190.571 325.767 190.462C325.804 190.124 325.938 189.862 326.17 189.676C326.401 189.49 326.691 189.417 327.039 189.455C327.407 189.495 327.693 189.637 327.898 189.881C328.102 190.125 328.186 190.42 328.148 190.768C328.1 191.206 327.892 191.535 327.526 191.757C327.159 191.988 326.662 192.069 326.036 192.001C325.27 191.917 324.611 191.643 324.058 191.18C323.504 190.727 323.088 190.123 322.808 189.368L323.694 188.998Z" fill="#DBDBDB"/>
<path d="M317.986 200.975C317.614 201.324 317.291 201.704 317.018 202.116C316.754 202.529 316.558 203.034 316.429 203.63C316.295 204.246 316.291 204.716 316.415 205.039C316.54 205.363 316.743 205.556 317.027 205.617C317.291 205.674 317.557 205.553 317.827 205.253C318.097 204.953 318.415 204.429 318.782 203.679C318.946 203.347 319.127 203.028 319.326 202.723C319.523 202.428 319.731 202.176 319.95 201.968C320.179 201.762 320.412 201.607 320.649 201.505C320.896 201.405 321.151 201.384 321.415 201.441C321.718 201.506 321.983 201.63 322.209 201.812C322.434 202.004 322.61 202.252 322.739 202.556C322.867 202.86 322.944 203.215 322.969 203.619C322.994 204.024 322.953 204.475 322.845 204.973C322.722 205.54 322.508 206.057 322.202 206.523C321.905 207 321.594 207.394 321.272 207.702L320.509 206.831C320.794 206.555 321.045 206.246 321.262 205.905C321.479 205.563 321.634 205.177 321.727 204.747C321.859 204.141 321.863 203.697 321.74 203.414C321.615 203.142 321.425 202.978 321.171 202.923C320.897 202.864 320.63 203.01 320.369 203.363C320.109 203.716 319.834 204.183 319.544 204.765C319.125 205.616 318.702 206.246 318.276 206.655C317.857 207.076 317.364 207.225 316.797 207.102C316.494 207.036 316.227 206.902 315.995 206.698C315.763 206.494 315.575 206.228 315.431 205.901C315.294 205.585 315.217 205.21 315.198 204.776C315.168 204.35 315.21 203.873 315.324 203.345C315.472 202.661 315.719 202.039 316.066 201.48C316.422 200.922 316.799 200.457 317.197 200.083L317.986 200.975Z" fill="#DBDBDB"/>
<path d="M317.915 230.962L317.308 232.317L314.734 231.164L313.521 230.57C313.678 231.002 313.759 231.444 313.765 231.896C313.766 232.357 313.681 232.779 313.51 233.163C313.313 233.601 313.055 233.956 312.736 234.229C312.425 234.507 312.068 234.692 311.665 234.785C311.266 234.891 310.831 234.91 310.358 234.84C309.881 234.78 309.382 234.633 308.862 234.4C308.287 234.142 307.813 233.831 307.439 233.467C307.066 233.102 306.787 232.709 306.604 232.287C306.425 231.878 306.336 231.454 306.335 231.016C306.33 230.586 306.416 230.175 306.592 229.783C306.735 229.463 306.966 229.156 307.285 228.86C307.599 228.574 307.97 228.346 308.397 228.175L308.415 228.134L307.731 227.68L308.21 226.612L317.915 230.962ZM309.259 228.71C308.877 228.878 308.565 229.084 308.325 229.327C308.094 229.574 307.929 229.807 307.831 230.026C307.594 230.555 307.605 231.092 307.865 231.636C308.135 232.184 308.671 232.638 309.474 232.998C310.177 233.313 310.795 233.425 311.328 233.335C311.861 233.246 312.263 232.9 312.533 232.297C312.656 232.024 312.711 231.704 312.7 231.337C312.698 230.974 312.605 230.571 312.421 230.127L309.259 228.71Z" fill="#DBDBDB"/>
<path d="M305.545 240.598C306.064 240.899 306.474 241.258 306.775 241.675C307.085 242.098 307.295 242.543 307.405 243.011C307.524 243.485 307.544 243.959 307.465 244.433C307.395 244.913 307.24 245.36 306.999 245.776C306.728 246.243 306.416 246.611 306.064 246.88C305.706 247.159 305.32 247.345 304.907 247.441C304.502 247.541 304.076 247.548 303.628 247.463C303.19 247.382 302.75 247.213 302.309 246.957C302.179 246.882 302.058 246.801 301.947 246.713C301.84 246.64 301.752 246.571 301.684 246.509L304.453 241.733C303.805 241.416 303.183 241.361 302.588 241.571C301.996 241.794 301.515 242.226 301.143 242.866C300.943 243.212 300.805 243.56 300.73 243.909C300.649 244.267 300.613 244.639 300.62 245.025L299.539 245.005C299.522 244.556 299.561 244.081 299.654 243.581C299.752 243.094 299.943 242.604 300.229 242.111C300.505 241.635 300.839 241.228 301.232 240.889C301.629 240.564 302.06 240.329 302.526 240.183C302.992 240.037 303.481 239.991 303.993 240.045C304.508 240.113 305.026 240.297 305.545 240.598ZM303.221 245.892C303.792 246.223 304.315 246.329 304.788 246.21C305.261 246.092 305.656 245.76 305.972 245.215C306.248 244.739 306.342 244.227 306.255 243.68C306.168 243.132 305.864 242.65 305.343 242.232L303.221 245.892Z" fill="#DBDBDB"/>
<path d="M298.102 252.694C298.587 253.047 298.958 253.447 299.214 253.893C299.478 254.346 299.641 254.81 299.702 255.287C299.771 255.771 299.741 256.244 299.614 256.708C299.494 257.178 299.293 257.606 299.011 257.994C298.693 258.431 298.344 258.765 297.966 258.996C297.581 259.236 297.178 259.381 296.757 259.433C296.343 259.491 295.919 259.454 295.483 259.322C295.055 259.196 294.635 258.983 294.223 258.683C294.102 258.594 293.99 258.501 293.889 258.402C293.79 258.318 293.71 258.241 293.649 258.172L296.898 253.71C296.287 253.326 295.674 253.208 295.06 253.355C294.448 253.515 293.925 253.895 293.489 254.493C293.253 254.816 293.08 255.148 292.969 255.487C292.852 255.835 292.777 256.201 292.744 256.585L291.671 256.453C291.701 256.005 291.788 255.537 291.934 255.049C292.081 254.574 292.322 254.107 292.658 253.646C292.982 253.202 293.357 252.831 293.782 252.535C294.211 252.253 294.664 252.064 295.143 251.967C295.621 251.87 296.112 251.876 296.616 251.983C297.122 252.103 297.617 252.34 298.102 252.694ZM295.241 257.717C295.775 258.106 296.283 258.266 296.766 258.197C297.249 258.128 297.676 257.839 298.047 257.33C298.371 256.885 298.518 256.386 298.488 255.833C298.458 255.279 298.206 254.767 297.732 254.298L295.241 257.717Z" fill="#DBDBDB"/>
<path d="M291.942 266.668L291.129 267.57L290.168 266.866L290.128 266.911C290.163 267.44 290.132 267.951 290.038 268.445C289.95 268.945 289.716 269.407 289.334 269.83C288.759 270.469 288.147 270.766 287.501 270.722C286.854 270.678 286.174 270.334 285.461 269.691L282.085 266.649L283.079 265.546L286.31 268.458C286.786 268.886 287.212 269.115 287.589 269.145C287.973 269.182 288.353 268.992 288.728 268.576C288.989 268.287 289.149 267.96 289.208 267.596C289.274 267.238 289.29 266.788 289.254 266.244L285.499 262.86L286.493 261.757L291.942 266.668Z" fill="#DBDBDB"/>
<path d="M271.73 285.933L270.529 286.807L267.533 284.016C267.27 283.774 267.016 283.526 266.77 283.273C266.529 283.027 266.286 282.778 266.039 282.524L265.991 282.559C266.294 283.18 266.594 283.821 266.89 284.483L268.281 287.72L267.335 288.408L264.659 286.108C264.388 285.872 264.126 285.63 263.871 285.382C263.614 285.149 263.355 284.911 263.092 284.669L263.044 284.704C263.193 285.029 263.352 285.34 263.519 285.638C263.685 285.951 263.846 286.266 264.004 286.584L265.739 290.294L264.623 291.106L261.495 284.31L262.926 283.269L265.519 285.556C265.781 285.798 266.037 286.038 266.286 286.278C266.532 286.532 266.795 286.791 267.075 287.057L267.124 287.022C266.988 286.75 266.844 286.459 266.692 286.149C266.533 285.844 266.353 285.487 266.153 285.076L264.77 281.927L266.176 280.903L271.73 285.933Z" fill="#DBDBDB"/>
<path d="M257.166 291.528C257.467 292.047 257.644 292.562 257.698 293.074C257.757 293.595 257.718 294.086 257.58 294.547C257.448 295.016 257.23 295.437 256.926 295.81C256.627 296.191 256.269 296.502 255.854 296.743C255.387 297.014 254.933 297.178 254.493 297.237C254.044 297.3 253.617 297.271 253.211 297.148C252.809 297.034 252.436 296.828 252.091 296.531C251.75 296.243 251.452 295.878 251.197 295.437C251.121 295.307 251.057 295.177 251.005 295.045C250.948 294.928 250.906 294.825 250.878 294.737L255.654 291.97C255.25 291.372 254.738 291.016 254.117 290.902C253.492 290.802 252.86 290.937 252.219 291.308C251.873 291.508 251.581 291.741 251.342 292.007C251.094 292.278 250.878 292.582 250.692 292.921L249.764 292.366C249.973 291.968 250.242 291.575 250.572 291.187C250.899 290.813 251.308 290.483 251.802 290.198C252.278 289.922 252.77 289.735 253.279 289.636C253.785 289.551 254.276 289.562 254.753 289.667C255.23 289.772 255.677 289.975 256.094 290.276C256.508 290.591 256.865 291.008 257.166 291.528ZM252.519 294.966C252.849 295.537 253.25 295.889 253.719 296.021C254.189 296.153 254.696 296.062 255.241 295.746C255.717 295.47 256.054 295.073 256.25 294.555C256.447 294.036 256.423 293.466 256.179 292.845L252.519 294.966Z" fill="#DBDBDB"/>
<path d="M245.896 301.812L241.543 303.761L238.545 297.067L239.9 296.46L242.407 302.059L245.405 300.717L245.896 301.812ZM242.907 304.679C243.199 304.548 243.48 304.527 243.749 304.614C244.018 304.702 244.218 304.892 244.349 305.184C244.48 305.476 244.488 305.751 244.374 306.011C244.264 306.279 244.063 306.478 243.771 306.609C243.479 306.74 243.196 306.757 242.923 306.66C242.654 306.573 242.454 306.383 242.323 306.091C242.192 305.799 242.184 305.523 242.298 305.264C242.412 305.005 242.615 304.81 242.907 304.679Z" fill="#DBDBDB"/>
<path d="M231.691 307.619L230.522 308.003L229.875 306.415L229.832 306.429C229.658 307.118 229.366 307.703 228.956 308.185C228.536 308.67 228.013 309.015 227.386 309.221C227.11 309.312 226.86 309.367 226.635 309.388C226.414 309.419 226.177 309.418 225.924 309.385L225.84 308.071C226.102 308.069 226.325 308.059 226.509 308.041C226.692 308.023 226.917 307.97 227.183 307.883C227.687 307.717 228.125 307.416 228.497 306.978C228.869 306.54 229.134 305.906 229.293 305.075L227.993 301.113L229.404 300.65L231.691 307.619Z" fill="#DBDBDB"/>
<path d="M218.112 307.83C218.238 308.416 218.263 308.958 218.187 309.455C218.103 309.965 217.949 310.412 217.725 310.798C217.492 311.186 217.204 311.51 216.861 311.768C216.508 312.028 216.126 312.203 215.715 312.292C215.276 312.387 214.882 312.39 214.536 312.301C214.179 312.215 213.814 312.063 213.44 311.848L213.775 313.111L214.352 315.779L212.9 316.093L210.653 305.698L211.84 305.441L212.148 306.295L212.192 306.286C212.414 305.941 212.697 305.619 213.041 305.319C213.388 305.03 213.776 304.838 214.206 304.745C214.676 304.644 215.119 304.635 215.536 304.719C215.943 304.805 216.319 304.979 216.662 305.243C217.005 305.506 217.3 305.851 217.546 306.279C217.794 306.717 217.983 307.233 218.112 307.83ZM216.619 308.168C216.44 307.337 216.136 306.737 215.709 306.369C215.271 306.004 214.745 305.887 214.129 306.02C213.484 306.16 212.953 306.612 212.535 307.378L213.271 310.779C213.613 310.992 213.938 311.121 214.245 311.167C214.551 311.214 214.846 311.206 215.13 311.145C215.413 311.083 215.664 310.968 215.883 310.798C216.102 310.627 216.28 310.41 216.418 310.145C216.557 309.89 216.646 309.594 216.686 309.258C216.726 308.922 216.704 308.559 216.619 308.168Z" fill="#DBDBDB"/>
<path d="M187.887 314.152L189.897 314.143L189.903 315.268L187.833 315.353L187.648 317.379L186.418 317.385L186.408 315.36L182.943 315.376L182.938 314.176L186.402 314.16L186.387 310.92C186.384 310.29 186.256 309.82 186.005 309.512C185.743 309.203 185.278 309.05 184.608 309.053C184.288 309.055 183.993 309.081 183.723 309.133C183.443 309.194 183.179 309.275 182.929 309.376L182.624 308.283C182.953 308.171 183.318 308.075 183.718 307.993C184.117 307.901 184.527 307.854 184.947 307.852C185.487 307.849 185.947 307.922 186.328 308.07C186.699 308.218 187 308.427 187.231 308.696C187.452 308.965 187.614 309.284 187.716 309.653C187.818 310.033 187.87 310.453 187.872 310.913L187.887 314.152Z" fill="#DBDBDB"/>
<path d="M175.806 311.378C175.745 311.985 175.592 312.517 175.345 312.975C175.099 313.433 174.79 313.809 174.419 314.104C174.048 314.398 173.635 314.609 173.18 314.734C172.726 314.86 172.26 314.899 171.782 314.851C171.304 314.804 170.855 314.674 170.434 314.461C170.013 314.248 169.65 313.961 169.344 313.599C169.038 313.236 168.81 312.807 168.658 312.309C168.507 311.812 168.461 311.26 168.522 310.653C168.582 310.046 168.736 309.513 168.982 309.055C169.228 308.607 169.536 308.236 169.907 307.942C170.278 307.647 170.691 307.437 171.146 307.311C171.6 307.186 172.067 307.147 172.544 307.194C173.022 307.242 173.471 307.372 173.892 307.584C174.313 307.797 174.676 308.085 174.982 308.447C175.288 308.809 175.517 309.234 175.669 309.721C175.821 310.218 175.866 310.771 175.806 311.378ZM174.283 311.226C174.362 310.44 174.235 309.789 173.905 309.274C173.574 308.759 173.081 308.468 172.424 308.403C171.767 308.338 171.226 308.525 170.8 308.965C170.374 309.405 170.122 310.018 170.044 310.804C169.966 311.59 170.092 312.241 170.423 312.756C170.753 313.272 171.247 313.562 171.904 313.627C172.56 313.693 173.102 313.505 173.527 313.065C173.953 312.625 174.205 312.012 174.283 311.226Z" fill="#DBDBDB"/>
<path d="M145.483 312.955L141.78 311.78L144.249 304.002C144.403 303.516 144.396 303.126 144.227 302.831C144.046 302.542 143.76 302.336 143.369 302.212C143.179 302.152 142.976 302.114 142.76 302.098C142.545 302.082 142.297 302.087 142.016 302.113L142.009 300.946C142.189 300.94 142.363 300.938 142.53 300.939C142.688 300.936 142.848 300.945 143.01 300.965C143.174 300.975 143.345 300.998 143.523 301.034C143.694 301.056 143.88 301.1 144.08 301.163C144.862 301.411 145.386 301.824 145.654 302.402C145.912 302.977 145.906 303.689 145.637 304.537L143.554 311.1L145.842 311.826L145.483 312.955Z" fill="#DBDBDB"/>
<path d="M132.559 304.944L128.187 303.036L131.12 296.313L132.481 296.907L130.028 302.53L133.039 303.844L132.559 304.944ZM128.427 304.663C128.72 304.791 128.925 304.984 129.041 305.242C129.158 305.5 129.152 305.776 129.024 306.069C128.896 306.362 128.698 306.554 128.43 306.644C128.157 306.743 127.874 306.729 127.581 306.601C127.288 306.473 127.085 306.276 126.972 306.008C126.856 305.75 126.862 305.474 126.989 305.181C127.117 304.888 127.316 304.696 127.584 304.606C127.853 304.516 128.133 304.535 128.427 304.663Z" fill="#DBDBDB"/>
<path d="M121.685 293.812C121.463 293.353 121.196 292.932 120.884 292.548C120.568 292.174 120.144 291.836 119.614 291.535C119.065 291.225 118.618 291.081 118.272 291.103C117.926 291.126 117.682 291.263 117.539 291.515C117.406 291.75 117.442 292.041 117.648 292.387C117.854 292.734 118.26 293.194 118.867 293.767C119.135 294.023 119.386 294.291 119.617 294.572C119.84 294.848 120.019 295.121 120.153 295.392C120.281 295.672 120.359 295.94 120.386 296.197C120.408 296.462 120.353 296.712 120.22 296.947C120.067 297.217 119.87 297.433 119.629 297.595C119.379 297.752 119.089 297.847 118.761 297.879C118.432 297.912 118.071 297.879 117.678 297.783C117.284 297.686 116.865 297.512 116.422 297.261C115.917 296.975 115.488 296.617 115.134 296.187C114.766 295.76 114.483 295.347 114.285 294.947L115.343 294.478C115.522 294.832 115.742 295.164 116.004 295.473C116.266 295.782 116.588 296.045 116.971 296.262C117.51 296.567 117.933 296.703 118.239 296.67C118.537 296.632 118.749 296.499 118.878 296.273C119.016 296.03 118.955 295.731 118.696 295.377C118.436 295.023 118.072 294.622 117.603 294.172C116.916 293.518 116.44 292.927 116.177 292.398C115.899 291.874 115.904 291.359 116.19 290.854C116.342 290.584 116.551 290.369 116.814 290.208C117.078 290.047 117.388 289.947 117.743 289.907C118.086 289.871 118.466 289.909 118.886 290.02C119.302 290.118 119.745 290.3 120.215 290.566C120.824 290.911 121.344 291.332 121.775 291.829C122.201 292.335 122.533 292.833 122.772 293.325L121.685 293.812Z" fill="#DBDBDB"/>
<path d="M106.237 289.223L107.873 290.39L107.22 291.306L105.491 290.166L104.156 291.701L103.155 290.987L104.331 289.338L101.51 287.326L102.206 286.349L105.028 288.361L106.909 285.723C107.275 285.21 107.446 284.755 107.422 284.358C107.39 283.954 107.102 283.558 106.556 283.169C106.296 282.983 106.041 282.832 105.792 282.716C105.53 282.602 105.267 282.514 105.006 282.45L105.397 281.384C105.73 281.486 106.082 281.621 106.454 281.788C106.832 281.947 107.192 282.148 107.534 282.392C107.974 282.706 108.305 283.034 108.527 283.377C108.741 283.714 108.863 284.059 108.894 284.412C108.916 284.76 108.861 285.113 108.727 285.473C108.588 285.84 108.385 286.211 108.118 286.585L106.237 289.223Z" fill="#DBDBDB"/>
<path d="M97.9549 279.82C97.5577 280.27 97.1248 280.601 96.6563 280.815C96.1811 281.035 95.7031 281.153 95.2223 281.169C94.7349 281.192 94.2663 281.118 93.8165 280.948C93.3601 280.785 92.952 280.544 92.5923 280.227C92.1876 279.869 91.8878 279.491 91.6931 279.092C91.4909 278.687 91.3837 278.272 91.3716 277.847C91.3529 277.431 91.4297 277.011 91.6019 276.59C91.7676 276.176 92.0192 275.778 92.3569 275.395C92.4562 275.283 92.5597 275.181 92.6674 275.089C92.7609 274.998 92.845 274.926 92.9196 274.872L97.0566 278.526C97.4958 277.954 97.6712 277.355 97.5829 276.73C97.4805 276.105 97.152 275.548 96.5974 275.058C96.2976 274.794 95.9839 274.59 95.6563 274.447C95.3211 274.298 94.9637 274.189 94.584 274.12L94.8162 273.065C95.2598 273.136 95.7178 273.267 96.1901 273.458C96.6483 273.649 97.091 273.933 97.5182 274.311C97.9304 274.675 98.2638 275.083 98.5185 275.535C98.7591 275.987 98.905 276.456 98.9563 276.942C99.0077 277.428 98.9564 277.916 98.8026 278.407C98.6347 278.9 98.3522 279.371 97.9549 279.82ZM93.2223 276.5C92.7853 276.995 92.5784 277.486 92.6015 277.973C92.6246 278.461 92.8722 278.913 93.3444 279.33C93.7566 279.694 94.2397 279.887 94.7937 279.91C95.3477 279.932 95.8806 279.729 96.3925 279.301L93.2223 276.5Z" fill="#DBDBDB"/>
<path d="M84.6217 272.374L83.7996 271.48L84.5909 270.59L84.5503 270.545C84.0201 270.53 83.5139 270.452 83.0315 270.311C82.5417 270.177 82.104 269.901 81.7183 269.481C81.1364 268.848 80.8979 268.211 81.0028 267.572C81.1076 266.932 81.5135 266.287 82.2204 265.638L85.5669 262.563L86.5717 263.656L83.3688 266.599C82.8975 267.032 82.6292 267.435 82.564 267.807C82.4913 268.187 82.6445 268.582 83.0234 268.995C83.2873 269.282 83.5977 269.472 83.9548 269.565C84.3044 269.664 84.7514 269.722 85.2957 269.738L89.0178 266.318L90.0226 267.411L84.6217 272.374Z" fill="#DBDBDB"/>
<path d="M66.9125 247.365L67.9374 249.094L66.9696 249.668L65.8496 247.925L64.0082 248.79L63.381 247.732L65.123 246.699L63.3562 243.719L64.3885 243.107L66.1553 246.087L68.9424 244.435C69.4844 244.114 69.825 243.767 69.9642 243.394C70.0983 243.012 69.9945 242.533 69.6529 241.957C69.4897 241.681 69.3178 241.44 69.1371 241.234C68.9427 241.023 68.7388 240.836 68.5253 240.672L69.3142 239.856C69.5771 240.083 69.845 240.349 70.1177 240.652C70.3991 240.95 70.6469 241.28 70.8611 241.642C71.1364 242.106 71.3064 242.54 71.3712 242.943C71.4308 243.338 71.4031 243.703 71.2881 244.039C71.168 244.366 70.9743 244.667 70.707 244.941C70.4311 245.221 70.0953 245.478 69.6996 245.713L66.9125 247.365Z" fill="#DBDBDB"/>
<path d="M63.1962 235.539C62.6419 235.794 62.105 235.93 61.5854 235.949C61.0657 235.968 60.5849 235.892 60.1431 235.721C59.7012 235.55 59.3111 235.3 58.9728 234.971C58.6346 234.643 58.3651 234.26 58.1646 233.824C57.9641 233.388 57.8491 232.935 57.8197 232.464C57.7904 231.993 57.8546 231.534 58.0123 231.087C58.1701 230.641 58.4253 230.226 58.7778 229.844C59.1304 229.462 59.5837 229.143 60.1379 228.888C60.6922 228.633 61.2291 228.497 61.7487 228.478C62.2593 228.463 62.7355 228.541 63.1774 228.712C63.6193 228.883 64.0094 229.133 64.3476 229.462C64.6859 229.791 64.9553 230.173 65.1559 230.609C65.3564 231.045 65.4714 231.499 65.5007 231.969C65.5301 232.44 65.4659 232.899 65.3081 233.346C65.1504 233.793 64.8997 234.205 64.5563 234.583C64.2037 234.965 63.7504 235.284 63.1962 235.539ZM62.5569 234.149C63.2747 233.819 63.7722 233.381 64.0496 232.835C64.3269 232.289 64.3277 231.716 64.052 231.117C63.7762 230.517 63.3409 230.145 62.7461 230C62.1512 229.856 61.4949 229.948 60.7772 230.278C60.0594 230.608 59.5619 231.046 59.2845 231.592C59.0072 232.138 59.0064 232.711 59.2821 233.31C59.5579 233.91 59.9932 234.282 60.588 234.427C61.1829 234.571 61.8392 234.479 62.5569 234.149Z" fill="#DBDBDB"/>
<path d="M49.7917 209.77L49.5396 208.658L50.4494 208.329L50.4394 208.285C50.08 208.192 49.7714 208.052 49.5135 207.864C49.2437 207.669 49.0624 207.367 48.9695 206.957C48.8081 206.245 49.1123 205.71 49.882 205.351C49.4769 205.238 49.1335 205.08 48.8517 204.877C48.5699 204.674 48.3837 204.373 48.2931 203.973C48.1803 203.476 48.2881 203.046 48.6163 202.685C48.9347 202.325 49.4548 202.064 50.1765 201.9L55.2674 200.746L55.5791 202.122L50.6052 203.249C49.8738 203.415 49.5589 203.722 49.6606 204.171C49.7114 204.395 49.8385 204.571 50.0419 204.699C50.2355 204.83 50.5169 204.94 50.8861 205.031L55.977 203.877L56.2356 205.018L51.2618 206.145C50.5303 206.311 50.2177 206.628 50.3238 207.096C50.3746 207.321 50.5006 207.492 50.7018 207.611C50.8932 207.731 51.1735 207.837 51.5426 207.927L56.6335 206.774L56.9452 208.149L49.7917 209.77Z" fill="#DBDBDB"/>
<path d="M55.9164 193.897C55.9355 193.804 55.9485 193.702 55.9553 193.59C55.9621 193.479 55.959 193.368 55.946 193.259C55.8879 192.772 55.707 192.396 55.4033 192.13C55.1096 191.863 54.7491 191.67 54.3218 191.549L53.7923 191.416L46.9503 195.602L46.7743 194.127L50.3767 192.036C50.6877 191.857 51.0187 191.677 51.3695 191.494C51.7202 191.311 52.0655 191.124 52.4052 190.932L52.398 190.873C52.0363 190.795 51.664 190.714 51.2812 190.628C50.8984 190.543 50.5311 190.461 50.1793 190.382L46.2087 189.391L46.0416 187.991L54.1582 190.179C54.5633 190.282 54.9359 190.409 55.2762 190.559C55.6165 190.71 55.9162 190.901 56.1754 191.132C56.4334 191.353 56.6416 191.62 56.7998 191.933C56.968 192.246 57.0776 192.615 57.1286 193.042C57.15 193.221 57.1564 193.401 57.148 193.584C57.1483 193.755 57.1319 193.913 57.0988 194.058L55.9164 193.897Z" fill="#DBDBDB"/>
<path d="M44.4542 158.657C44.3097 158.925 44.201 159.187 44.128 159.441C44.0559 159.686 44.006 159.962 43.9784 160.271C43.924 160.879 44.0392 161.331 44.3239 161.627C44.5986 161.923 45.0148 162.096 45.5726 162.146L46.1105 162.194L46.3712 159.281L47.5665 159.388L47.3057 162.301L53.4163 162.848L53.2852 164.312L47.1746 163.765L46.9914 165.812L45.8709 165.712L45.9794 163.658L45.4714 163.613C45.0332 163.573 44.6401 163.478 44.2923 163.326C43.9344 163.174 43.6372 162.962 43.4005 162.689C43.1638 162.417 42.9927 162.086 42.8872 161.695C42.7716 161.303 42.737 160.848 42.7834 160.33C42.8485 159.603 43.0517 158.903 43.393 158.231L44.4542 158.657Z" fill="#DBDBDB"/>
<path d="M52.7735 152.587C52.3711 152.509 52.0361 152.346 51.7684 152.1C51.5026 151.844 51.3011 151.494 51.164 151.05C51.0288 150.595 50.9549 150.036 50.9424 149.371C50.9318 148.696 50.9805 147.901 51.0886 146.984C50.6431 146.918 50.2365 146.991 49.8687 147.204C49.5027 147.408 49.2573 147.828 49.1325 148.466C49.046 148.908 49.0449 149.356 49.1291 149.811C49.2152 150.255 49.3268 150.675 49.4637 151.068L48.3708 151.42C48.2915 151.2 48.2169 150.957 48.1472 150.688C48.0676 150.418 48.0057 150.136 47.9614 149.842C47.9189 149.538 47.8971 149.233 47.8959 148.927C47.8965 148.611 47.9276 148.296 47.9891 147.982C48.1851 146.981 48.6019 146.284 49.2397 145.889C49.8774 145.494 50.6722 145.39 51.6242 145.576L55.952 146.423L55.7186 147.616L54.7681 147.552L54.7595 147.596C54.9789 148.036 55.1545 148.519 55.286 149.044C55.4097 149.557 55.4226 150.064 55.3246 150.565C55.2573 150.908 55.1449 151.223 54.9872 151.508C54.8314 151.783 54.6441 152.011 54.4251 152.192C54.1964 152.372 53.942 152.5 53.6619 152.578C53.3836 152.646 53.0875 152.649 52.7735 152.587ZM52.9471 151.154C53.3102 151.225 53.5972 151.139 53.808 150.895C54.0207 150.641 54.1655 150.318 54.2424 149.925C54.3173 149.542 54.3069 149.153 54.2111 148.757C54.1173 148.352 53.9548 147.933 53.7236 147.5L52.016 147.166C51.9365 147.884 51.8998 148.488 51.9057 148.978C51.9018 149.467 51.9456 149.868 52.0371 150.181C52.1207 150.483 52.2393 150.71 52.3929 150.862C52.5464 151.015 52.7312 151.112 52.9471 151.154Z" fill="#DBDBDB"/>
<path d="M50.5447 137.752L50.9842 136.318L55.2518 136.01C55.6466 135.985 56.0337 135.967 56.413 135.958C56.7953 135.939 57.1776 135.92 57.5599 135.902L57.5775 135.844C57.2714 135.614 56.9638 135.389 56.6548 135.169C56.3457 134.949 56.0349 134.718 55.7221 134.475L52.36 131.829L52.7775 130.467L58.9291 135.427L58.4368 137.033L50.5447 137.752Z" fill="#DBDBDB"/>
<path d="M58.6051 125.216C58.0436 124.977 57.581 124.672 57.2174 124.301C56.8537 123.929 56.5864 123.522 56.4155 123.08C56.2445 122.638 56.1668 122.182 56.1823 121.71C56.1977 121.239 56.2992 120.782 56.4868 120.34C56.6743 119.898 56.9323 119.508 57.2607 119.17C57.5891 118.831 57.9716 118.57 58.4083 118.386C58.8449 118.202 59.3232 118.111 59.8432 118.115C60.3632 118.118 60.9039 118.239 61.4654 118.478C62.0269 118.716 62.4895 119.021 62.8532 119.393C63.2077 119.76 63.4704 120.165 63.6413 120.607C63.8122 121.049 63.8899 121.506 63.8745 121.977C63.8591 122.449 63.7576 122.905 63.57 123.347C63.3824 123.789 63.1245 124.179 62.796 124.518C62.4676 124.856 62.0851 125.118 61.6485 125.302C61.2119 125.486 60.7382 125.578 60.2274 125.578C59.7074 125.575 59.1667 125.454 58.6051 125.216ZM59.203 123.807C59.9302 124.116 60.5889 124.189 61.1793 124.027C61.7696 123.865 62.1937 123.48 62.4516 122.872C62.7095 122.265 62.6918 121.692 62.3984 121.155C62.105 120.618 61.5948 120.195 60.8676 119.886C60.1404 119.577 59.4816 119.504 58.8913 119.666C58.301 119.829 57.8769 120.213 57.619 120.821C57.3611 121.428 57.3788 122.001 57.6722 122.538C57.9655 123.076 58.4758 123.499 59.203 123.807Z" fill="#DBDBDB"/>
<path d="M61.863 109.431L62.4586 108.354L64.0128 109.077L64.0346 109.038C63.6937 108.415 63.5096 107.787 63.4823 107.155C63.46 106.514 63.6086 105.905 63.9282 105.327C64.0686 105.074 64.2139 104.863 64.3642 104.694C64.5058 104.521 64.6803 104.361 64.8879 104.213L65.8437 105.119C65.6526 105.299 65.496 105.458 65.3739 105.596C65.2517 105.734 65.1228 105.926 64.9872 106.171C64.7306 106.634 64.6149 107.153 64.6401 107.727C64.6653 108.301 64.9023 108.947 65.3512 109.664L68.9997 111.683L68.2806 112.982L61.863 109.431Z" fill="#DBDBDB"/>
<path d="M68.9245 97.5521L71.6554 93.6412L77.6694 97.8405L76.8192 99.058L71.7891 95.5457L69.9084 98.2391L68.9245 97.5521ZM70.0135 93.5558C69.8303 93.8182 69.6007 93.9811 69.3247 94.0445C69.0487 94.1079 68.7795 94.048 68.5172 93.8648C68.2548 93.6816 68.1058 93.4495 68.0703 93.1686C68.0265 92.8819 68.0963 92.6074 68.2795 92.345C68.4627 92.0826 68.6964 91.9226 68.9806 91.8649C69.2566 91.8015 69.5258 91.8614 69.7881 92.0446C70.0505 92.2278 70.1995 92.4599 70.235 92.7408C70.2706 93.0218 70.1967 93.2935 70.0135 93.5558Z" fill="#DBDBDB"/>
<path d="M79.6168 85.371L78.3011 86.8905L77.4506 86.1541L78.7488 84.5401L77.3456 83.0672L78.1507 82.1373L79.6816 83.4628L81.9497 80.8433L82.8569 81.6288L80.5888 84.2483L83.0382 86.3691C83.5145 86.7815 83.9517 86.9946 84.3497 87.0085C84.7542 87.0149 85.1758 86.7648 85.6143 86.2583C85.8238 86.0164 85.998 85.777 86.1369 85.5401C86.2748 85.2892 86.3878 85.0365 86.4759 84.782L87.5001 85.272C87.3672 85.5935 87.2001 85.9316 86.9988 86.2864C86.805 86.6477 86.5706 86.9871 86.2957 87.3046C85.9422 87.7128 85.5844 88.0115 85.2223 88.2006C84.8667 88.3821 84.5116 88.4715 84.1569 88.4686C83.8088 88.4582 83.4621 88.3697 83.117 88.2031C82.7642 88.03 82.414 87.7929 82.0662 87.4918L79.6168 85.371Z" fill="#DBDBDB"/>
<path d="M89.7566 78.0096C89.3462 77.5719 89.0569 77.1097 88.8887 76.6232C88.7136 76.1294 88.6409 75.6424 88.6706 75.1623C88.6934 74.6749 88.8108 74.2153 89.0228 73.7835C89.228 73.3444 89.5057 72.9607 89.8559 72.6324C90.2498 72.2631 90.6545 72.0003 91.0699 71.8439C91.4926 71.6807 91.9157 71.613 92.3393 71.6408C92.7561 71.6613 93.1662 71.7771 93.5697 71.9883C93.9664 72.1921 94.3391 72.48 94.6879 72.8521C94.7905 72.9615 94.8824 73.0742 94.9635 73.19C95.0452 73.2917 95.1095 73.3822 95.1564 73.4615L91.1293 77.2368C91.6582 77.7278 92.2379 77.9588 92.8685 77.9296C93.4996 77.8863 94.085 77.6116 94.6249 77.1055C94.9167 76.832 95.149 76.5388 95.3219 76.226C95.502 75.9064 95.644 75.5608 95.748 75.1892L96.7773 75.5195C96.6642 75.9545 96.4907 76.3982 96.2568 76.8505C96.0233 77.2886 95.6987 77.7026 95.2828 78.0925C94.8816 78.4686 94.4441 78.7623 93.9703 78.9734C93.497 79.1703 93.0162 79.2715 92.5279 79.277C92.0396 79.2825 91.5581 79.1856 91.0834 78.9863C90.6092 78.7729 90.1669 78.4473 89.7566 78.0096ZM93.5067 73.6099C93.0554 73.1284 92.5859 72.8762 92.0985 72.8534C91.6111 72.8306 91.1376 73.0346 90.678 73.4655C90.2767 73.8417 90.0389 74.3045 89.9646 74.8539C89.8902 75.4033 90.0423 75.953 90.4207 76.5029L93.5067 73.6099Z" fill="#DBDBDB"/>
<path d="M113.435 61.393C113.944 61.4233 114.442 61.3961 114.929 61.3116C115.41 61.2184 115.912 61.0138 116.434 60.6975C116.972 60.3709 117.316 60.0512 117.466 59.7384C117.615 59.4256 117.615 59.1452 117.465 58.8972C117.325 58.6663 117.053 58.5561 116.65 58.5665C116.247 58.5769 115.648 58.7066 114.851 58.9555C114.497 59.0652 114.14 59.1526 113.782 59.2177C113.433 59.2776 113.107 59.2996 112.805 59.2839C112.498 59.2596 112.226 59.1965 111.989 59.0947C111.746 58.9843 111.555 58.8137 111.415 58.5828C111.255 58.3177 111.162 58.0403 111.139 57.7506C111.124 57.4557 111.182 57.157 111.315 56.8546C111.447 56.5521 111.652 56.2528 111.928 55.9565C112.204 55.6603 112.561 55.3799 112.997 55.1155C113.493 54.8149 114.015 54.6152 114.563 54.5167C115.115 54.4044 115.614 54.3592 116.06 54.3812L115.952 55.5341C115.556 55.5171 115.159 55.5472 114.761 55.6245C114.364 55.7018 113.977 55.8545 113.601 56.0826C113.071 56.404 112.745 56.7065 112.625 56.99C112.513 57.2684 112.524 57.5187 112.659 57.7411C112.804 57.9805 113.094 58.0735 113.53 58.02C113.965 57.9666 114.494 57.845 115.115 57.6552C116.021 57.3749 116.769 57.2488 117.359 57.277C117.953 57.2914 118.4 57.5466 118.701 58.0426C118.861 58.3077 118.948 58.5945 118.959 58.9032C118.971 59.2118 118.907 59.5311 118.768 59.861C118.632 60.1772 118.414 60.4912 118.111 60.803C117.823 61.1182 117.448 61.4157 116.986 61.6957C116.388 62.0586 115.766 62.3067 115.122 62.44C114.473 62.5647 113.875 62.6112 113.33 62.5794L113.435 61.393Z" fill="#DBDBDB"/>
<path d="M124.116 53.3017C123.855 52.7501 123.713 52.2145 123.689 51.6951C123.665 51.1756 123.736 50.6941 123.903 50.2506C124.07 49.807 124.316 49.4145 124.641 49.073C124.966 48.7314 125.346 48.4582 125.78 48.2534C126.214 48.0485 126.666 47.929 127.137 47.895C127.607 47.8609 128.067 47.9206 128.515 48.0739C128.963 48.2272 129.38 48.4782 129.766 48.8269C130.152 49.1757 130.475 49.6259 130.735 50.1775C130.996 50.7292 131.138 51.2647 131.162 51.7841C131.182 52.2945 131.108 52.7715 130.941 53.2151C130.775 53.6586 130.529 54.0512 130.204 54.3927C129.878 54.7342 129.498 55.0074 129.064 55.2123C128.63 55.4172 128.178 55.5366 127.708 55.5707C127.237 55.6047 126.778 55.5451 126.329 55.3918C125.881 55.2385 125.466 54.992 125.085 54.6523C124.699 54.3036 124.376 53.8534 124.116 53.3017ZM125.499 52.6487C125.836 53.3631 126.279 53.8563 126.828 54.1282C127.376 54.4001 127.949 54.3952 128.546 54.1135C129.143 53.8318 129.51 53.3928 129.649 52.7966C129.788 52.2003 129.689 51.5449 129.352 50.8305C129.014 50.1161 128.572 49.6229 128.023 49.351C127.475 49.0791 126.902 49.084 126.305 49.3657C125.708 49.6474 125.34 50.0864 125.202 50.6826C125.063 51.2789 125.162 51.9343 125.499 52.6487Z" fill="#DBDBDB"/>
<path d="M136.347 43.9387L137.493 43.5371L137.998 44.6158L138.055 44.5959C138.278 44.115 138.55 43.6808 138.87 43.2932C139.187 42.8963 139.614 42.6036 140.152 42.4152C140.964 42.1309 141.642 42.1633 142.189 42.5124C142.735 42.8615 143.166 43.4891 143.484 44.3951L144.986 48.6846L143.585 49.1755L142.147 45.07C141.935 44.466 141.671 44.0604 141.355 43.8533C141.035 43.6368 140.611 43.6211 140.083 43.8062C139.715 43.9351 139.417 44.1452 139.191 44.4364C138.961 44.7182 138.732 45.1059 138.502 45.5996L140.173 50.3705L138.771 50.8613L136.347 43.9387Z" fill="#DBDBDB"/>
<path d="M153.121 47.5521C153.202 47.8927 153.451 48.1213 153.869 48.2379C154.3 48.362 154.87 48.3398 155.58 48.1714C155.96 48.0814 156.291 47.9617 156.574 47.8123C156.869 47.6704 157.109 47.5108 157.293 47.3335C157.489 47.1637 157.627 46.9871 157.707 46.8037C157.787 46.6203 157.806 46.4411 157.764 46.2659C157.691 45.9546 157.51 45.7765 157.221 45.7318C156.945 45.6945 156.55 45.737 156.034 45.8593L154.779 46.1569C154.555 46.21 154.353 46.2476 154.173 46.2697C153.996 46.3015 153.824 46.3115 153.656 46.2998C153.404 46.5344 153.24 46.7531 153.164 46.956C153.089 47.1588 153.075 47.3575 153.121 47.5521ZM151.936 48.018C151.869 47.7358 151.901 47.4354 152.031 47.1169C152.173 46.8057 152.404 46.4992 152.723 46.1975L152.709 46.1391C152.489 46.0782 152.284 45.9726 152.094 45.8224C151.902 45.6624 151.77 45.4316 151.699 45.1299C151.643 44.8964 151.661 44.6456 151.751 44.3775C151.849 44.0973 152.013 43.8325 152.241 43.583L152.227 43.5246C151.931 43.3997 151.659 43.2072 151.412 42.9471C151.163 42.6773 150.988 42.3283 150.886 41.9002C150.792 41.5013 150.785 41.1276 150.867 40.7794C150.947 40.4213 151.091 40.0993 151.301 39.8132C151.511 39.5271 151.772 39.2853 152.085 39.0878C152.407 38.8879 152.763 38.7419 153.152 38.6496C153.551 38.555 153.925 38.528 154.274 38.5686L157.208 37.8729L157.467 38.9675L155.687 39.3898C155.87 39.5109 156.047 39.6743 156.219 39.8802C156.389 40.0763 156.507 40.3154 156.574 40.5976C156.667 40.9868 156.676 41.3495 156.601 41.6858C156.527 42.022 156.388 42.3272 156.186 42.6012C155.982 42.8655 155.722 43.0916 155.407 43.2794C155.091 43.4672 154.739 43.6072 154.35 43.6995C154.175 43.7411 153.981 43.7666 153.767 43.7761C153.563 43.7834 153.355 43.7711 153.142 43.7394C152.862 44.032 152.755 44.3193 152.822 44.6015C152.884 44.8642 153.051 45.0251 153.322 45.0842C153.593 45.1432 153.957 45.1185 154.414 45.0101L155.932 44.6501C156.866 44.4286 157.589 44.401 158.102 44.5673C158.621 44.7216 158.954 45.1052 159.099 45.7182C159.18 46.0588 159.159 46.4029 159.036 46.7507C158.922 47.0962 158.717 47.4224 158.42 47.7292C158.125 48.0458 157.744 48.3262 157.278 48.5704C156.814 48.8243 156.276 49.0239 155.663 49.1693C154.651 49.4092 153.814 49.433 153.151 49.2407C152.491 49.058 152.086 48.6505 151.936 48.018ZM154.129 42.7654C154.537 42.6685 154.855 42.4492 155.082 42.1076C155.31 41.7659 155.366 41.3518 155.25 40.8653C155.14 40.3983 154.905 40.0583 154.546 39.8453C154.187 39.6324 153.803 39.5743 153.395 39.6712C152.986 39.7682 152.669 39.9923 152.444 40.3437C152.219 40.6951 152.162 41.1043 152.273 41.5714C152.388 42.0579 152.624 42.4028 152.981 42.606C153.337 42.8092 153.72 42.8623 154.129 42.7654Z" fill="#DBDBDB"/>
<path d="M165.611 41.8967C166.064 42.1303 166.531 42.3069 167.01 42.4263C167.488 42.5358 168.03 42.5514 168.635 42.4731C169.259 42.3922 169.703 42.2389 169.967 42.0132C170.23 41.7875 170.343 41.5309 170.306 41.2433C170.271 40.9755 170.067 40.7649 169.694 40.6116C169.322 40.4582 168.721 40.3343 167.892 40.24C167.523 40.197 167.162 40.1328 166.808 40.0476C166.464 39.961 166.157 39.8495 165.887 39.713C165.616 39.5666 165.393 39.3989 165.217 39.2099C165.04 39.011 164.934 38.7777 164.9 38.5099C164.86 38.2025 164.888 37.9115 164.983 37.637C165.089 37.3611 165.263 37.1117 165.507 36.8886C165.75 36.6655 166.058 36.4743 166.431 36.3152C166.803 36.156 167.242 36.0436 167.748 35.9781C168.323 35.9036 168.882 35.9322 169.423 36.0637C169.973 36.1841 170.448 36.3445 170.847 36.5449L170.282 37.5558C169.926 37.38 169.551 37.2471 169.156 37.1571C168.761 37.067 168.346 37.0503 167.909 37.1068C167.295 37.1864 166.875 37.3315 166.65 37.5421C166.435 37.7515 166.344 37.9851 166.378 38.2429C166.414 38.5206 166.642 38.723 167.061 38.8501C167.481 38.9773 168.014 39.0797 168.659 39.1575C169.601 39.2674 170.336 39.4546 170.864 39.7189C171.401 39.972 171.707 40.3862 171.782 40.9614C171.821 41.2688 171.784 41.5661 171.67 41.8531C171.556 42.1401 171.369 42.4064 171.108 42.6519C170.856 42.8862 170.529 43.0849 170.127 43.2479C169.735 43.4195 169.272 43.5401 168.736 43.6094C168.042 43.6993 167.374 43.675 166.731 43.5364C166.086 43.388 165.521 43.1889 165.035 42.9393L165.611 41.8967Z" fill="#DBDBDB"/>
</svg>
