<svg width="402" height="439" viewBox="0 0 402 439" fill="none" xmlns="http://www.w3.org/2000/svg">
<path d="M38.3509 140.082L38.8743 139.069L39.7822 139.404L39.8029 139.364C39.5877 139.061 39.442 138.755 39.3656 138.445C39.285 138.122 39.341 137.774 39.5339 137.401C39.869 136.752 40.4466 136.539 41.2666 136.76C41.0297 136.412 40.8688 136.07 40.7838 135.734C40.6988 135.397 40.7505 135.047 40.9387 134.683C41.1728 134.229 41.5319 133.97 42.0158 133.905C42.4908 133.836 43.057 133.971 43.7144 134.31L48.3518 136.707L47.7044 137.959L43.1737 135.618C42.5074 135.274 42.0686 135.306 41.8575 135.715C41.7519 135.919 41.7356 136.136 41.8085 136.365C41.8726 136.589 42.0167 136.855 42.2407 137.162L46.8781 139.559L46.3409 140.598L41.8101 138.257C41.1439 137.912 40.7005 137.953 40.4802 138.38C40.3746 138.584 40.3606 138.796 40.4381 139.016C40.5068 139.232 40.6532 139.493 40.8772 139.801L45.5145 142.197L44.8672 143.45L38.3509 140.082Z" fill="#DBDBDB"/>
<path d="M52.8526 132.421C52.9253 132.36 52.999 132.288 53.0736 132.205C53.1482 132.122 53.2144 132.033 53.272 131.94C53.5285 131.522 53.6204 131.115 53.5474 130.718C53.483 130.326 53.3206 129.951 53.0604 129.591L52.728 129.158L44.7657 128.19L45.5433 126.925L49.666 127.522C50.0205 127.576 50.392 127.64 50.7805 127.714C51.169 127.789 51.5559 127.857 51.9411 127.917L51.9726 127.866C51.7372 127.581 51.496 127.286 51.2488 126.981C51.0017 126.677 50.7647 126.384 50.5379 126.104L48.041 122.862L48.7793 121.66L53.783 128.415C54.0367 128.747 54.2501 129.078 54.4232 129.408C54.5964 129.737 54.7129 130.073 54.7727 130.415C54.8377 130.748 54.8349 131.087 54.7644 131.431C54.7023 131.78 54.5587 132.138 54.3336 132.504C54.2393 132.657 54.1323 132.803 54.0125 132.941C53.9064 133.075 53.7954 133.189 53.6795 133.282L52.8526 132.421Z" fill="#DBDBDB"/>
<path d="M60.3811 105.665L61.1149 104.792L61.9268 105.319L61.9558 105.284C61.8127 104.942 61.738 104.611 61.7318 104.292C61.7244 103.959 61.8558 103.632 62.1262 103.311C62.5961 102.752 63.2066 102.671 63.9576 103.067C63.8032 102.676 63.7217 102.307 63.713 101.96C63.7044 101.613 63.832 101.283 64.0959 100.969C64.4242 100.578 64.8315 100.405 65.3179 100.448C65.7966 100.485 66.3191 100.741 66.8854 101.218L70.8801 104.578L69.9725 105.657L66.0696 102.374C65.4956 101.891 65.0606 101.826 64.7645 102.178C64.6164 102.354 64.5527 102.562 64.5734 102.801C64.5864 103.034 64.6683 103.325 64.8191 103.674L68.8138 107.035L68.0606 107.93L64.1578 104.647C63.5838 104.164 63.1423 104.106 62.8334 104.474C62.6853 104.65 62.6248 104.854 62.6519 105.086C62.6714 105.311 62.7565 105.598 62.9073 105.947L66.902 109.307L65.9943 110.386L60.3811 105.665Z" fill="#DBDBDB"/>
<path d="M72.0052 97.9298C71.5687 97.5037 71.2486 97.0514 71.0449 96.573C70.8412 96.0945 70.74 95.6184 70.7415 95.1446C70.7429 94.6708 70.8364 94.2171 71.0222 93.7835C71.2079 93.3499 71.4685 92.9614 71.8038 92.618C72.1392 92.2745 72.5213 92.0048 72.9504 91.8087C73.3794 91.6126 73.8307 91.5083 74.3044 91.4955C74.778 91.4828 75.2564 91.5725 75.7396 91.7648C76.2227 91.957 76.6825 92.2662 77.119 92.6923C77.5555 93.1185 77.8755 93.5708 78.0793 94.0492C78.2758 94.5207 78.3734 94.9933 78.372 95.4671C78.3706 95.9409 78.277 96.3946 78.0913 96.8282C77.9055 97.2618 77.645 97.6503 77.3096 97.9937C76.9743 98.3372 76.5921 98.6069 76.1631 98.803C75.7341 98.9991 75.2827 99.1035 74.8091 99.1162C74.3355 99.1289 73.8606 99.0427 73.3846 98.8574C72.9015 98.6652 72.4416 98.356 72.0052 97.9298ZM73.0741 96.8351C73.6393 97.387 74.2264 97.6947 74.8353 97.7581C75.4442 97.8216 75.9792 97.6172 76.4403 97.1449C76.9014 96.6727 77.0929 96.133 77.015 95.5258C76.937 94.9185 76.6154 94.339 76.0501 93.7871C75.4849 93.2352 74.8978 92.9275 74.2889 92.8641C73.68 92.8006 73.145 93.005 72.6839 93.4772C72.2228 93.9495 72.0313 94.4892 72.1092 95.0964C72.1872 95.7037 72.5088 96.2832 73.0741 96.8351Z" fill="#DBDBDB"/>
<path d="M79.4474 85.4582L80.3583 84.6541L81.2325 85.4631L81.2775 85.4234C81.3034 84.8936 81.3915 84.389 81.5417 83.9095C81.6854 83.4225 81.9709 82.9904 82.3982 82.6132C83.0429 82.044 83.684 81.8182 84.3214 81.9359C84.9588 82.0535 85.5951 82.4721 86.2305 83.1918L89.2384 86.5991L88.1251 87.5819L85.2463 84.3208C84.8227 83.841 84.4254 83.5647 84.0545 83.4921C83.6769 83.4119 83.2782 83.5571 82.8584 83.9277C82.566 84.1858 82.3698 84.4924 82.2698 84.8475C82.1631 85.1951 82.0964 85.6408 82.0696 86.1847L85.4151 89.9743L84.3018 90.9571L79.4474 85.4582Z" fill="#DBDBDB"/>
<path d="M91.9048 76.6032L90.3036 77.8182L89.6236 76.922L91.2272 75.611L90.1585 73.8799L91.1384 73.1364L92.3624 74.7496L95.1227 72.655L95.8481 73.611L93.0878 75.7055L95.0463 78.2866C95.4271 78.7884 95.8108 79.0873 96.1974 79.1831C96.5919 79.2729 97.056 79.1153 97.5897 78.7103C97.8447 78.5169 98.0645 78.3186 98.2494 78.1156C98.4362 77.8985 98.5989 77.6746 98.7376 77.4438L99.6385 78.1348C99.4421 78.4219 99.2088 78.7182 98.9385 79.0237C98.6743 79.3372 98.3749 79.6209 98.0403 79.8748C97.6101 80.2012 97.1983 80.4195 96.8049 80.5297C96.4195 80.6339 96.0536 80.648 95.7071 80.5719C95.3687 80.4898 95.0478 80.3316 94.7445 80.0973C94.4351 79.855 94.1414 79.5507 93.8633 79.1842L91.9048 76.6032Z" fill="#DBDBDB"/>
<path d="M98.961 65.9552L102.221 63.8424L106.659 70.6903C106.936 71.1183 107.242 71.3608 107.577 71.4178C107.915 71.4611 108.256 71.3712 108.6 71.1482C108.768 71.0395 108.926 70.907 109.075 70.7508C109.224 70.5947 109.378 70.3997 109.537 70.166L110.442 70.9018C110.332 71.0446 110.224 71.1804 110.117 71.3094C110.018 71.433 109.91 71.5508 109.792 71.663C109.679 71.7836 109.553 71.9012 109.413 72.0159C109.286 72.1335 109.135 72.2494 108.959 72.3636C108.271 72.8096 107.618 72.9523 107.002 72.7917C106.394 72.6257 105.848 72.1692 105.364 71.4223L101.619 65.6445L99.6054 66.9497L98.961 65.9552Z" fill="#DBDBDB"/>
<path d="M116.871 69.4421C116.964 69.4252 117.064 69.3991 117.17 69.3638C117.276 69.3285 117.377 69.2845 117.474 69.2317C117.904 68.9964 118.185 68.6883 118.319 68.3074C118.457 67.9353 118.502 67.5286 118.455 67.0873L118.381 66.5463L111.946 61.7581L113.248 61.045L116.533 63.6078C116.814 63.83 117.105 64.0698 117.405 64.3271C117.706 64.5845 118.008 64.835 118.313 65.0787L118.365 65.0499C118.302 64.6853 118.239 64.3095 118.176 63.9225C118.112 63.5355 118.051 63.1641 117.993 62.8083L117.433 58.7544L118.669 58.0774L119.665 66.4246C119.721 66.8388 119.742 67.2318 119.729 67.6037C119.716 67.9756 119.651 68.3249 119.533 68.6515C119.424 68.9733 119.254 69.2661 119.022 69.5298C118.795 69.8023 118.493 70.0418 118.116 70.2483C117.958 70.3347 117.793 70.408 117.62 70.4681C117.462 70.5322 117.309 70.5759 117.162 70.5993L116.871 69.4421Z" fill="#DBDBDB"/>
<path d="M137.14 49.7686L141.617 48.1211L144.155 55.0188C144.311 55.4411 144.407 55.8479 144.445 56.239C144.485 56.6396 144.437 57.0144 144.299 57.3635C144.174 57.7185 143.947 58.0419 143.617 58.3337C143.297 58.622 142.851 58.8715 142.278 59.0822C141.903 59.2203 141.524 59.3064 141.143 59.3403C140.774 59.3802 140.429 59.3845 140.108 59.3533L140.167 58.1651C140.772 58.2191 141.324 58.1546 141.822 57.9716C142.45 57.7402 142.82 57.4282 142.932 57.0356C143.046 56.6524 143 56.1793 142.793 55.6162L140.638 49.7602L137.555 50.8947L137.14 49.7686ZM140.319 47.1125C140.018 47.223 139.737 47.2253 139.474 47.1196C139.211 47.0138 139.025 46.8107 138.914 46.5104C138.804 46.2101 138.814 45.9346 138.946 45.6837C139.074 45.4235 139.288 45.2381 139.588 45.1276C139.888 45.0171 140.172 45.0194 140.438 45.1346C140.7 45.2403 140.887 45.4434 140.998 45.7437C141.108 46.044 141.098 46.3196 140.966 46.5704C140.835 46.8213 140.619 47.0019 140.319 47.1125Z" fill="#DBDBDB"/>
<path d="M150.606 48.9863C150.438 48.3998 150.384 47.8483 150.445 47.3318C150.505 46.8153 150.653 46.3517 150.889 45.9409C151.125 45.5302 151.432 45.1826 151.808 44.8982C152.184 44.6137 152.603 44.4055 153.065 44.2736C153.526 44.1416 153.992 44.0969 154.462 44.1393C154.931 44.1818 155.375 44.3149 155.793 44.5387C156.21 44.7625 156.581 45.0777 156.906 45.4842C157.23 45.8907 157.476 46.3872 157.644 46.9737C157.811 47.5602 157.865 48.1117 157.805 48.6282C157.742 49.1351 157.592 49.5939 157.356 50.0047C157.12 50.4154 156.813 50.763 156.437 51.0474C156.061 51.3318 155.642 51.54 155.18 51.672C154.719 51.804 154.253 51.8487 153.783 51.8063C153.314 51.7638 152.87 51.6307 152.452 51.4068C152.035 51.183 151.665 50.8727 151.344 50.4758C151.019 50.0693 150.773 49.5728 150.606 48.9863ZM152.077 48.5656C152.294 49.3252 152.651 49.8835 153.148 50.2405C153.646 50.5975 154.212 50.6853 154.846 50.5038C155.481 50.3224 155.915 49.9487 156.148 49.3827C156.382 48.8167 156.39 48.1539 156.173 47.3944C155.955 46.6348 155.598 46.0765 155.101 45.7195C154.603 45.3625 154.037 45.2747 153.403 45.4562C152.768 45.6376 152.334 46.0114 152.101 46.5773C151.868 47.1433 151.859 47.8061 152.077 48.5656Z" fill="#DBDBDB"/>
<path d="M170.94 47.7435L169.75 47.9901L169.386 46.8248L169.327 46.8369C169.06 47.3213 168.742 47.7344 168.374 48.0762C168.013 48.4063 167.559 48.6282 167.011 48.7418C166.159 48.9184 165.486 48.8025 164.993 48.3942C164.498 47.976 164.152 47.292 163.955 46.3422L163.032 41.8918L164.486 41.5903L165.369 45.8498C165.501 46.4862 165.711 46.9329 166 47.1898C166.286 47.4368 166.703 47.5035 167.251 47.3899C167.623 47.3127 167.943 47.1546 168.21 46.9154C168.485 46.6644 168.754 46.2869 169.017 45.783L167.997 40.8626L169.451 40.5612L170.94 47.7435Z" fill="#DBDBDB"/>
<path d="M177.413 39.2605L178.633 39.1007L178.974 40.7806L179.019 40.7748C179.317 40.1305 179.713 39.6097 180.206 39.2123C180.708 38.8136 181.287 38.5714 181.941 38.4857C182.228 38.448 182.485 38.4397 182.709 38.4607C182.933 38.4717 183.165 38.5169 183.408 38.5961L183.246 39.9031C182.988 39.8563 182.767 39.8247 182.583 39.8085C182.4 39.7922 182.169 39.8022 181.891 39.8386C181.366 39.9075 180.88 40.1225 180.433 40.4836C179.986 40.8447 179.607 41.4188 179.297 42.2058L179.839 46.3404L178.366 46.5334L177.413 39.2605Z" fill="#DBDBDB"/>
<path d="M190.234 37.8702L191.447 37.802L191.633 38.9783L191.693 38.975C192.041 38.5748 192.423 38.2328 192.837 37.9491C193.252 37.6554 193.743 37.4925 194.312 37.4605C195.171 37.4122 195.814 37.6315 196.242 38.1182C196.67 38.6049 196.911 39.3276 196.965 40.286L197.22 44.8239L195.738 44.9072L195.493 40.5641C195.458 39.9251 195.316 39.4623 195.07 39.1757C194.823 38.8791 194.42 38.7465 193.861 38.778C193.471 38.7999 193.127 38.9194 192.829 39.1365C192.53 39.3436 192.202 39.6525 191.845 40.0632L192.128 45.1102L190.646 45.1936L190.234 37.8702Z" fill="#DBDBDB"/>
<path d="M203.594 42.7868C203.602 42.3768 203.703 42.0186 203.899 41.7121C204.104 41.4057 204.414 41.1462 204.828 40.9336C205.252 40.7212 205.79 40.5508 206.442 40.4225C207.105 40.2943 207.896 40.2035 208.818 40.15C208.806 39.6998 208.663 39.3121 208.388 38.9872C208.124 38.6624 207.667 38.4941 207.017 38.4825C206.567 38.4744 206.126 38.5515 205.693 38.7138C205.27 38.8762 204.876 39.0592 204.513 39.2627L203.976 38.2479C204.178 38.1315 204.405 38.0156 204.657 37.9001C204.91 37.7746 205.177 37.6643 205.458 37.5694C205.75 37.4746 206.046 37.3999 206.347 37.3453C206.658 37.2909 206.974 37.2665 207.294 37.2723C208.314 37.2905 209.074 37.5792 209.574 38.1383C210.074 38.6973 210.315 39.4618 210.298 40.4316L210.219 44.8409L209.004 44.8191L208.901 43.8721L208.856 43.8713C208.46 44.1643 208.016 44.4214 207.522 44.6425C207.038 44.8539 206.541 44.955 206.031 44.9458C205.681 44.9396 205.352 44.8836 205.044 44.7781C204.746 44.6727 204.488 44.5281 204.272 44.3442C204.055 44.1503 203.884 43.9222 203.759 43.6599C203.643 43.3978 203.589 43.1067 203.594 42.7868ZM205.036 42.7076C205.029 43.0776 205.165 43.345 205.442 43.51C205.729 43.6752 206.072 43.7614 206.472 43.7686C206.862 43.7756 207.244 43.6974 207.617 43.5341C208 43.3709 208.384 43.1377 208.769 42.8346L208.801 41.0949C208.08 41.142 207.478 41.2112 206.997 41.3026C206.515 41.3839 206.128 41.497 205.835 41.6418C205.553 41.7767 205.35 41.9331 205.227 42.111C205.104 42.2888 205.04 42.4877 205.036 42.7076Z" fill="#DBDBDB"/>
<path d="M217.631 34.6202L221.499 34.9773L220.749 43.1028C220.702 43.6106 220.793 43.9905 221.02 44.2426C221.259 44.4855 221.583 44.6259 221.991 44.6635C222.19 44.6819 222.396 44.6759 222.61 44.6454C222.824 44.6149 223.065 44.5569 223.334 44.4712L223.591 45.6096C223.416 45.6537 223.247 45.6933 223.083 45.7284C222.929 45.7644 222.771 45.79 222.609 45.8052C222.446 45.8303 222.274 45.8445 222.092 45.8479C221.92 45.8621 221.73 45.8596 221.521 45.8403C220.704 45.7649 220.103 45.4735 219.718 44.9659C219.343 44.4593 219.197 43.7629 219.279 42.8767L219.912 36.0208L217.522 35.8002L217.631 34.6202Z" fill="#DBDBDB"/>
<path d="M304.757 363.858L303.526 364.689L301.947 362.352L301.229 361.208C301.135 361.658 300.971 362.077 300.737 362.464C300.496 362.856 300.201 363.17 299.853 363.405C299.455 363.674 299.049 363.84 298.633 363.904C298.223 363.976 297.822 363.945 297.43 363.811C297.035 363.692 296.656 363.478 296.29 363.169C295.917 362.867 295.57 362.479 295.251 362.007C294.899 361.485 294.66 360.97 294.535 360.463C294.409 359.957 294.38 359.476 294.447 359.02C294.51 358.579 294.658 358.172 294.888 357.799C295.111 357.431 295.4 357.127 295.756 356.886C296.046 356.69 296.405 356.551 296.831 356.468C297.25 356.39 297.685 356.392 298.138 356.472L298.175 356.447L297.833 355.7L298.803 355.045L304.757 363.858ZM298.589 357.381C298.175 357.322 297.802 357.333 297.47 357.412C297.143 357.5 296.88 357.612 296.681 357.746C296.201 358.071 295.927 358.533 295.862 359.132C295.802 359.74 296.018 360.409 296.511 361.138C296.942 361.776 297.408 362.197 297.908 362.402C298.409 362.607 298.932 362.525 299.479 362.155C299.728 361.987 299.944 361.745 300.128 361.427C300.317 361.118 300.451 360.727 300.528 360.252L298.589 357.381Z" fill="#DBDBDB"/>
<path d="M289.868 363.141C290.073 363.496 290.171 363.855 290.162 364.218C290.144 364.587 290.012 364.969 289.768 365.365C289.514 365.765 289.141 366.189 288.648 366.636C288.147 367.087 287.516 367.573 286.754 368.094C286.997 368.474 287.319 368.732 287.722 368.869C288.116 369.011 288.594 368.919 289.157 368.594C289.546 368.369 289.885 368.075 290.172 367.713C290.45 367.355 290.693 366.995 290.9 366.633L291.883 367.226C291.77 367.43 291.635 367.646 291.479 367.875C291.328 368.113 291.156 368.345 290.963 368.572C290.762 368.804 290.547 369.02 290.317 369.223C290.079 369.43 289.821 369.613 289.544 369.773C288.661 370.284 287.861 370.429 287.144 370.208C286.428 369.987 285.826 369.457 285.341 368.617L283.134 364.799L284.186 364.191L284.762 364.949L284.801 364.926C284.989 364.472 285.237 364.022 285.546 363.578C285.852 363.147 286.225 362.804 286.667 362.549C286.97 362.373 287.28 362.252 287.599 362.183C287.909 362.119 288.204 362.11 288.484 362.156C288.77 362.211 289.034 362.318 289.277 362.478C289.511 362.643 289.708 362.864 289.868 363.141ZM288.674 363.952C288.489 363.632 288.235 363.473 287.912 363.474C287.581 363.481 287.243 363.584 286.896 363.785C286.559 363.98 286.272 364.244 286.037 364.576C285.793 364.913 285.584 365.311 285.41 365.77L286.281 367.276C286.875 366.864 287.354 366.494 287.719 366.168C288.09 365.849 288.363 365.553 288.539 365.278C288.712 365.017 288.805 364.778 288.818 364.562C288.832 364.346 288.784 364.143 288.674 363.952Z" fill="#DBDBDB"/>
<path d="M280.021 370.557C280.289 371.105 280.429 371.643 280.442 372.171C280.455 372.698 280.363 373.194 280.166 373.657C279.97 374.121 279.688 374.536 279.323 374.904C278.948 375.276 278.509 375.585 278.006 375.831C277.467 376.094 276.949 376.23 276.452 376.238C275.96 376.256 275.516 376.201 275.119 376.072L275.351 374.906C275.717 374.995 276.068 375.03 276.404 375.01C276.744 375 277.075 374.916 277.399 374.758C277.749 374.587 278.044 374.371 278.284 374.109C278.528 373.856 278.707 373.574 278.822 373.262C278.928 372.955 278.966 372.624 278.938 372.27C278.915 371.926 278.818 371.578 278.646 371.228C278.475 370.877 278.263 370.58 278.011 370.336C277.754 370.106 277.471 369.938 277.164 369.832C276.847 369.73 276.516 369.692 276.172 369.715C275.832 369.748 275.486 369.85 275.136 370.021C274.731 370.218 274.405 370.472 274.156 370.783C273.907 371.094 273.705 371.42 273.55 371.763L272.562 371.177C272.782 370.669 273.072 370.216 273.434 369.817C273.8 369.427 274.225 369.113 274.711 368.876C275.223 368.626 275.741 368.468 276.265 368.401C276.78 368.339 277.271 368.377 277.74 368.516C278.208 368.654 278.639 368.889 279.034 369.219C279.425 369.563 279.754 370.008 280.021 370.557Z" fill="#DBDBDB"/>
<path d="M271.232 382.306L269.855 382.863L267.257 376.438L267.202 376.46L265.211 381.181L263.667 381.805L265.222 378.005L260.584 375.139L262.1 374.527L265.727 376.814L266.6 374.811L265.869 373.003L267.246 372.446L271.232 382.306Z" fill="#DBDBDB"/>
<path d="M244.605 386.49L246.556 386.004L246.828 387.096L244.837 387.669L245.138 389.681L243.944 389.979L243.455 388.014L240.092 388.852L239.802 387.687L243.164 386.849L242.381 383.706C242.229 383.094 241.994 382.668 241.676 382.428C241.349 382.19 240.86 382.152 240.21 382.314C239.899 382.392 239.619 382.487 239.369 382.601C239.112 382.727 238.874 382.869 238.656 383.026L238.1 382.036C238.394 381.85 238.725 381.669 239.094 381.495C239.46 381.311 239.847 381.168 240.255 381.066C240.779 380.936 241.243 380.897 241.648 380.951C242.043 381.007 242.385 381.138 242.674 381.345C242.952 381.553 243.185 381.825 243.372 382.16C243.56 382.505 243.711 382.9 243.822 383.346L244.605 386.49Z" fill="#DBDBDB"/>
<path d="M234.148 386.327C234.254 386.928 234.25 387.482 234.136 387.989C234.023 388.496 233.827 388.942 233.549 389.326C233.272 389.71 232.931 390.024 232.527 390.268C232.123 390.511 231.685 390.675 231.212 390.758C230.739 390.841 230.272 390.837 229.809 390.746C229.346 390.655 228.919 390.476 228.527 390.21C228.134 389.944 227.798 389.592 227.518 389.154C227.238 388.716 227.045 388.197 226.939 387.596C226.833 386.995 226.837 386.441 226.951 385.934C227.067 385.436 227.263 384.995 227.541 384.611C227.819 384.227 228.159 383.914 228.563 383.67C228.967 383.426 229.405 383.263 229.878 383.179C230.351 383.096 230.819 383.1 231.281 383.191C231.744 383.283 232.172 383.461 232.564 383.727C232.956 383.993 233.291 384.34 233.569 384.769C233.85 385.207 234.043 385.726 234.148 386.327ZM232.642 386.592C232.505 385.814 232.207 385.222 231.75 384.815C231.292 384.408 230.739 384.262 230.089 384.376C229.439 384.491 228.968 384.817 228.677 385.356C228.386 385.894 228.309 386.553 228.446 387.331C228.583 388.109 228.88 388.701 229.338 389.108C229.795 389.515 230.349 389.661 230.999 389.547C231.649 389.432 232.119 389.106 232.41 388.567C232.701 388.028 232.779 387.37 232.642 386.592Z" fill="#DBDBDB"/>
<path d="M208.764 393.017L207.535 393.059L207.356 391.354L207.311 391.356C206.952 391.968 206.508 392.449 205.98 392.797C205.441 393.146 204.842 393.331 204.183 393.354C203.893 393.364 203.637 393.348 203.416 393.305C203.194 393.273 202.967 393.206 202.733 393.104L203.019 391.818C203.272 391.889 203.489 391.942 203.67 391.976C203.851 392.01 204.082 392.022 204.362 392.012C204.892 391.994 205.396 391.827 205.876 391.51C206.355 391.193 206.787 390.658 207.171 389.905L207.028 385.737L208.513 385.686L208.764 393.017Z" fill="#DBDBDB"/>
<path d="M196.601 395.641L190.439 395.421L190.484 394.162L195.146 394.328L195.247 391.525L191.304 391.384L191.349 390.125L195.292 390.266L195.407 387.028L190.595 386.856L190.64 385.597L196.951 385.822L196.601 395.641Z" fill="#DBDBDB"/>
<path d="M185.292 387.113C185.249 387.521 185.116 387.869 184.895 388.157C184.663 388.444 184.332 388.675 183.901 388.851C183.46 389.025 182.909 389.148 182.248 389.219C181.577 389.288 180.78 389.309 179.858 389.282C179.83 389.731 179.939 390.13 180.184 390.478C180.418 390.824 180.859 391.032 181.505 391.101C181.953 391.148 182.399 391.11 182.845 390.986C183.28 390.862 183.688 390.714 184.068 390.543L184.514 391.601C184.303 391.699 184.066 391.795 183.805 391.888C183.543 391.991 183.267 392.077 182.978 392.147C182.679 392.216 182.377 392.264 182.073 392.292C181.758 392.319 181.442 392.316 181.124 392.282C180.109 392.174 179.378 391.82 178.928 391.219C178.479 390.619 178.306 389.836 178.408 388.872L178.874 384.486L180.082 384.614L180.101 385.567L180.146 385.571C180.566 385.314 181.031 385.097 181.543 384.92C182.043 384.752 182.547 384.695 183.054 384.749C183.402 384.786 183.725 384.87 184.023 385.002C184.311 385.133 184.554 385.3 184.754 385.502C184.953 385.714 185.103 385.957 185.205 386.229C185.297 386.5 185.326 386.795 185.292 387.113ZM183.849 387.065C183.888 386.698 183.777 386.419 183.515 386.231C183.244 386.041 182.909 385.925 182.511 385.883C182.124 385.842 181.737 385.886 181.351 386.016C180.955 386.145 180.552 386.344 180.141 386.612L179.958 388.342C180.68 388.358 181.285 388.342 181.773 388.293C182.26 388.254 182.655 388.176 182.96 388.057C183.253 387.947 183.469 387.809 183.607 387.643C183.745 387.477 183.826 387.284 183.849 387.065Z" fill="#DBDBDB"/>
<path d="M171.136 393.242L169.674 392.982L171.171 384.549L166.519 383.723L166.739 382.483L172.853 383.568L171.136 393.242Z" fill="#DBDBDB"/>
<path d="M159.906 388.462L155.279 387.302L157.063 380.187L158.503 380.548L157.011 386.499L160.198 387.298L159.906 388.462ZM155.784 388.866C156.094 388.944 156.328 389.101 156.485 389.336C156.643 389.572 156.683 389.844 156.605 390.155C156.527 390.465 156.363 390.687 156.113 390.82C155.861 390.963 155.58 390.996 155.269 390.918C154.959 390.84 154.726 390.679 154.571 390.433C154.414 390.198 154.374 389.925 154.452 389.615C154.529 389.304 154.693 389.083 154.943 388.949C155.193 388.816 155.473 388.789 155.784 388.866Z" fill="#DBDBDB"/>
<path d="M145.144 385.587L148.152 386.57L147.761 387.768L140.318 385.337L140.709 384.139L143.718 385.122L146.377 376.98L147.803 377.445L145.144 385.587Z" fill="#DBDBDB"/>
<path d="M139.478 372.621C139.406 372.56 139.322 372.499 139.228 372.439C139.134 372.379 139.036 372.329 138.934 372.287C138.48 372.103 138.063 372.079 137.683 372.217C137.308 372.345 136.964 372.567 136.652 372.883L136.28 373.282L136.637 381.295L135.261 380.736L135.171 376.571C135.165 376.213 135.167 375.836 135.177 375.44C135.186 375.045 135.189 374.652 135.185 374.262L135.13 374.24C134.887 374.519 134.636 374.805 134.376 375.099C134.116 375.393 133.867 375.675 133.628 375.945L130.841 378.942L129.535 378.411L135.373 372.364C135.659 372.059 135.95 371.794 136.247 371.569C136.543 371.344 136.855 371.173 137.182 371.058C137.5 370.939 137.835 370.886 138.186 370.899C138.541 370.903 138.917 370.985 139.316 371.147C139.482 371.215 139.643 371.296 139.799 371.392C139.949 371.474 140.079 371.565 140.19 371.664L139.478 372.621Z" fill="#DBDBDB"/>
<path d="M116.955 364.861L110.202 367.117L113.809 369.209L113.207 370.247L107.783 367.101L108.182 366.414L114.949 364.165L110.745 361.727L111.347 360.689L117.354 364.174L116.955 364.861Z" fill="#DBDBDB"/>
<path d="M105.234 361.129C104.897 361.626 104.523 362.018 104.11 362.306C103.683 362.597 103.253 362.795 102.82 362.9C102.378 362.999 101.945 363.014 101.521 362.944C101.089 362.868 100.699 362.713 100.352 362.477C99.9792 362.225 99.7054 361.943 99.5303 361.631C99.3468 361.313 99.204 360.945 99.1018 360.525L98.4194 361.639L96.8878 363.899L95.6585 363.066L101.625 354.262L102.631 354.944L102.225 355.756L102.262 355.781C102.665 355.704 103.094 355.686 103.548 355.729C103.997 355.779 104.404 355.928 104.768 356.175C105.165 356.444 105.478 356.758 105.705 357.118C105.925 357.472 106.057 357.864 106.104 358.294C106.151 358.724 106.104 359.176 105.965 359.649C105.82 360.131 105.576 360.624 105.234 361.129ZM103.959 360.283C104.436 359.58 104.66 358.946 104.631 358.383C104.593 357.814 104.314 357.353 103.792 356.999C103.246 356.629 102.552 356.557 101.71 356.784L99.7574 359.665C99.8404 360.059 99.971 360.383 100.149 360.637C100.328 360.891 100.537 361.099 100.777 361.262C101.017 361.424 101.274 361.526 101.549 361.567C101.823 361.608 102.103 361.586 102.389 361.503C102.67 361.427 102.946 361.288 103.216 361.085C103.487 360.881 103.734 360.614 103.959 360.283Z" fill="#DBDBDB"/>
<path d="M92.5878 356.692L88.836 353.746L93.3656 347.977L94.5336 348.894L90.745 353.719L93.3289 355.748L92.5878 356.692ZM88.6588 355.38C88.9105 355.578 89.0603 355.816 89.1081 356.096C89.156 356.375 89.0811 356.64 88.8835 356.892C88.6859 357.143 88.4458 357.279 88.1633 357.299C87.8746 357.327 87.6044 357.242 87.3527 357.044C87.1011 356.846 86.9544 356.604 86.9127 356.317C86.8649 356.038 86.9397 355.773 87.1374 355.521C87.335 355.269 87.575 355.133 87.8575 355.114C88.14 355.094 88.4071 355.183 88.6588 355.38Z" fill="#DBDBDB"/>
<path d="M80.6927 351.214L79.5917 350.218L81.484 348.127L82.6579 346.964C82.1286 346.997 81.6173 346.966 81.124 346.87C80.6307 346.775 80.1728 346.535 79.7501 346.153C79.1125 345.576 78.8165 344.964 78.8622 344.318C78.9078 343.671 79.2527 342.992 79.8969 342.28L82.9467 338.91L84.0477 339.907L81.1288 343.132C80.6993 343.606 80.4692 344.032 80.4384 344.409C80.4009 344.793 80.5898 345.173 81.005 345.549C81.2942 345.811 81.6208 345.971 81.9848 346.031C82.3422 346.098 82.7926 346.115 83.336 346.08L86.728 342.332L87.8291 343.329L80.6927 351.214Z" fill="#DBDBDB"/>
<path d="M67.5146 336.472C67.6221 336.757 67.7478 337.011 67.8918 337.233C68.0289 337.448 68.2049 337.667 68.4196 337.891C68.8421 338.331 69.2587 338.541 69.6693 338.521C70.0727 338.507 70.4764 338.307 70.8803 337.919L71.2697 337.545L69.2436 335.435L70.109 334.604L72.1352 336.714L76.5599 332.464L77.5782 333.524L73.1535 337.774L74.577 339.256L73.7656 340.035L72.288 338.605L71.9202 338.959C71.6028 339.263 71.2728 339.497 70.93 339.66C70.58 339.83 70.2247 339.914 69.864 339.914C69.5033 339.914 69.1409 339.825 68.7767 339.648C68.4052 339.478 68.0394 339.206 67.6792 338.831C67.1736 338.304 66.7793 337.691 66.4963 336.993L67.5146 336.472Z" fill="#DBDBDB"/>
<path d="M68.4748 329.023C68.0064 329.414 67.5239 329.686 67.0271 329.84C66.5304 329.994 66.0465 330.046 65.5753 329.997C65.1041 329.947 64.6623 329.808 64.2499 329.579C63.8375 329.35 63.4776 329.051 63.1701 328.682C62.8626 328.314 62.6332 327.906 62.4819 327.459C62.3306 327.012 62.2728 326.553 62.3084 326.08C62.344 325.608 62.4821 325.141 62.7225 324.68C62.963 324.219 63.3175 323.793 63.7859 323.402C64.2543 323.012 64.7369 322.739 65.2336 322.585C65.7226 322.438 66.2027 322.389 66.6739 322.439C67.1451 322.488 67.5869 322.628 67.9993 322.857C68.4117 323.086 68.7716 323.385 69.0791 323.753C69.3866 324.122 69.616 324.529 69.7673 324.976C69.9186 325.423 69.9764 325.883 69.9408 326.355C69.9052 326.828 69.771 327.291 69.5382 327.746C69.2977 328.207 68.9433 328.633 68.4748 329.023ZM67.4948 327.849C68.1014 327.342 68.4673 326.79 68.5925 326.191C68.7177 325.591 68.5689 325.038 68.1461 324.531C67.7233 324.025 67.2059 323.779 66.5939 323.795C65.9819 323.81 65.3726 324.071 64.766 324.577C64.1593 325.083 63.7934 325.636 63.6682 326.235C63.543 326.835 63.6918 327.388 64.1146 327.894C64.5374 328.401 65.0548 328.647 65.6668 328.631C66.2788 328.615 66.8881 328.355 67.4948 327.849Z" fill="#DBDBDB"/>
<path d="M62.9905 317.631L55.9039 316.938L58.3446 320.319L57.3717 321.021L53.7018 315.938L54.3464 315.472L61.4417 316.178L58.5972 312.237L59.5702 311.535L63.6351 317.166L62.9905 317.631Z" fill="#DBDBDB"/>
<path d="M45.0467 306.019C45.0923 306.32 45.1624 306.594 45.257 306.842C45.3463 307.08 45.4727 307.332 45.6361 307.595C45.9577 308.113 46.3213 308.406 46.7271 308.472C47.1244 308.543 47.5609 308.431 48.0368 308.136L48.4957 307.851L46.9537 305.365L47.9734 304.733L49.5154 307.218L54.7287 303.984L55.5036 305.233L50.2903 308.468L51.3737 310.214L50.4177 310.807L49.2706 309.1L48.8372 309.369C48.4633 309.601 48.0918 309.761 47.7226 309.849C47.345 309.942 46.9798 309.951 46.627 309.875C46.2743 309.8 45.9383 309.638 45.619 309.388C45.2912 309.145 44.9903 308.802 44.7161 308.36C44.3313 307.74 44.0733 307.058 43.9423 306.316L45.0467 306.019Z" fill="#DBDBDB"/>
<path d="M49.9675 297.399L43.0471 295.723L44.9922 299.412L43.9307 299.972L41.0061 294.426L41.7093 294.055L48.6367 295.743L46.3698 291.444L47.4312 290.885L50.6707 297.028L49.9675 297.399Z" fill="#DBDBDB"/>
<path d="M45.1231 284.494L47.3191 283.526L47.9182 284.885L38.4617 289.054L37.9715 287.943L38.7466 287.47L38.7284 287.429C38.3025 287.256 37.9113 287.013 37.5548 286.7C37.1983 286.387 36.9313 286.03 36.7538 285.627C36.5601 285.188 36.471 284.763 36.4864 284.352C36.4887 283.935 36.5903 283.546 36.7914 283.184C36.9793 282.817 37.2575 282.482 37.6259 282.177C37.9904 281.863 38.4333 281.591 38.9549 281.362C39.5313 281.107 40.08 280.964 40.601 280.931C41.122 280.898 41.6006 280.955 42.0367 281.101C42.4597 281.242 42.8343 281.46 43.1603 281.753C43.4864 282.046 43.7362 282.39 43.9097 282.783C44.0469 283.094 44.1215 283.45 44.1335 283.849C44.1364 284.252 44.0697 284.658 43.9334 285.068L45.1231 284.494ZM42.9134 285.469C43.0445 285.072 43.1004 284.703 43.0811 284.362C43.0526 284.025 42.992 283.751 42.8992 283.54C42.6612 283.001 42.253 282.645 41.6748 282.474C41.0874 282.306 40.3911 282.4 39.5859 282.755C38.8813 283.066 38.3837 283.449 38.093 283.905C37.8023 284.362 37.7901 284.892 38.0564 285.495C38.1774 285.77 38.3777 286.026 38.6572 286.263C38.9276 286.505 39.2895 286.706 39.7429 286.867L42.9134 285.469Z" fill="#DBDBDB"/>
<path d="M37.275 276.728C36.701 276.935 36.1543 277.025 35.635 277C35.1156 276.974 34.6431 276.857 34.2175 276.649C33.7919 276.44 33.4246 276.158 33.1157 275.802C32.8069 275.445 32.5712 275.041 32.4087 274.589C32.2462 274.138 32.1705 273.676 32.1815 273.204C32.1926 272.733 32.2958 272.281 32.4912 271.85C32.6867 271.418 32.9764 271.027 33.3604 270.676C33.7443 270.326 34.2233 270.047 34.7973 269.841C35.3713 269.634 35.918 269.544 36.4373 269.569C36.9473 269.599 37.4151 269.717 37.8407 269.925C38.2663 270.134 38.6335 270.416 38.9424 270.772C39.2513 271.129 39.487 271.533 39.6495 271.985C39.812 272.436 39.8877 272.898 39.8766 273.37C39.8656 273.841 39.7624 274.293 39.5669 274.724C39.3715 275.156 39.0865 275.545 38.7119 275.893C38.328 276.243 37.849 276.522 37.275 276.728ZM36.7571 275.289C37.5005 275.021 38.0337 274.628 38.3567 274.108C38.6798 273.588 38.7296 273.017 38.5062 272.396C38.2828 271.775 37.881 271.367 37.3007 271.172C36.7204 270.977 36.0586 271.013 35.3152 271.28C34.5718 271.548 34.0386 271.941 33.7156 272.461C33.3925 272.981 33.3427 273.552 33.5661 274.173C33.7895 274.794 34.1913 275.202 34.7716 275.397C35.3519 275.592 36.0137 275.556 36.7571 275.289Z" fill="#DBDBDB"/>
</svg>
